<?xml version="1.0" encoding="utf-8"?>
<!-- Generator: Adobe Illustrator 21.0.0, SVG Export Plug-In . SVG Version: 6.00 Build 0)  -->
<svg version="1.1" id="Layer_1" xmlns="http://www.w3.org/2000/svg" xmlns:xlink="http://www.w3.org/1999/xlink" x="0px" y="0px"
	 viewBox="0 0 19 19" enable-background="new 0 0 19 19" xml:space="preserve">
<g>
	<g>
		<g>
			<g id="calendar_9_">
				<path fill="#6A6A77" d="M17.417,1.781h-2.573V0.594C14.844,0.265,14.578,0,14.25,0s-0.594,0.265-0.594,0.594v1.188h-3.563V0.594
					C10.094,0.265,9.828,0,9.5,0S8.906,0.265,8.906,0.594v1.188H5.344V0.594C5.344,0.265,5.078,0,4.75,0S4.156,0.265,4.156,0.594
					v1.188H1.584C0.709,1.781,0,2.49,0,3.365v14.052C0,18.291,0.709,19,1.584,19h15.833C18.291,19,19,18.291,19,17.416V3.364
					C19,2.49,18.291,1.781,17.417,1.781z M17.812,17.416c0,0.218-0.178,0.396-0.396,0.396H1.584c-0.219,0-0.396-0.177-0.396-0.396
					V3.365c0-0.218,0.178-0.396,0.396-0.396h2.573v1.188c0,0.328,0.266,0.594,0.594,0.594s0.594-0.265,0.594-0.594V2.969h3.563
					v1.188c0,0.328,0.266,0.594,0.594,0.594s0.594-0.265,0.594-0.594V2.969h3.563v1.188c0,0.328,0.265,0.594,0.594,0.594
					s0.594-0.265,0.594-0.594V2.969h2.573c0.217,0,0.395,0.178,0.395,0.395V17.416z"/>
				<rect x="4.156" y="7.125" fill="#6A6A77" width="2.375" height="1.781"/>
				<rect x="4.156" y="10.094" fill="#6A6A77" width="2.375" height="1.781"/>
				<rect x="4.156" y="13.063" fill="#6A6A77" width="2.375" height="1.781"/>
				<rect x="8.312" y="13.063" fill="#6A6A77" width="2.375" height="1.781"/>
				<rect x="8.312" y="10.094" fill="#6A6A77" width="2.375" height="1.781"/>
				<rect x="8.312" y="7.125" fill="#6A6A77" width="2.375" height="1.781"/>
				<rect x="12.469" y="13.063" fill="#6A6A77" width="2.375" height="1.781"/>
				<rect x="12.469" y="10.094" fill="#6A6A77" width="2.375" height="1.781"/>
				<rect x="12.469" y="7.125" fill="#6A6A77" width="2.375" height="1.781"/>
			</g>
		</g>
	</g>
</g>
</svg>
