<?xml version="1.0" encoding="utf-8"?>
<!-- Generator: Adobe Illustrator 21.0.0, SVG Export Plug-In . SVG Version: 6.00 Build 0)  -->
<svg version="1.1" id="Layer_1" xmlns="http://www.w3.org/2000/svg" xmlns:xlink="http://www.w3.org/1999/xlink" x="0px" y="0px"
	 width="21.697px" height="20.402px" viewBox="0 0 21.697 20.402" enable-background="new 0 0 21.697 20.402" xml:space="preserve">
<g>
	<g>
		<g>
			<g>
				<path fill="#B2B2B2" d="M18.307,1.358H15.61v-0.68c0-0.362-0.284-0.671-0.645-0.678c-0.408-0.008-0.682,0.265-0.682,0.679v0.679
					h-6.79l0-0.68c0-0.362-0.283-0.671-0.645-0.678C6.439-0.008,6.166,0.265,6.166,0.679v0.679h-2.77C1.52,1.358,0,2.878,0,4.754
					v12.253c0,1.875,1.52,3.395,3.395,3.395h14.907c1.875,0,3.395-1.52,3.395-3.395V4.759C21.697,2.854,20.206,1.358,18.307,1.358
					L18.307,1.358z M1.327,4.792c0-1.082,0.952-2.029,2.04-2.029h2.799l0,0.68c0,0.362,0.283,0.671,0.645,0.678
					C7.219,4.13,7.493,3.856,7.493,3.442V2.763h6.79v0.68c0,0.362,0.284,0.671,0.645,0.678c0.408,0.008,0.682-0.265,0.682-0.679
					V2.763h2.724c1.12,0,2.037,0.917,2.037,2.037v2.021H1.327L1.327,4.792L1.327,4.792z M18.333,18.997H3.364
					c-1.12,0-2.037-0.917-2.037-2.037V8.148h19.044v8.812C20.371,18.08,19.454,18.997,18.333,18.997z"/>
				<path fill="#B2B2B2" d="M4.762,16.989c0.407,0,0.679-0.136,0.951-0.407c0.272-0.272,0.407-0.679,0.407-0.951
					c0-0.272-0.136-0.679-0.407-0.951c-0.543-0.543-1.358-0.543-1.901,0c-0.272,0.272-0.407,0.543-0.407,0.951
					c0,0.272,0.136,0.679,0.407,0.951S4.355,16.989,4.762,16.989z"/>
				<path fill="#B2B2B2" d="M4.762,12.914c0.407,0,0.679-0.136,0.951-0.407c0.272-0.272,0.407-0.679,0.407-0.951
					c0-0.272-0.136-0.679-0.407-0.951c-0.543-0.543-1.358-0.543-1.901,0c-0.272,0.272-0.407,0.543-0.407,0.951
					s0.136,0.679,0.407,0.951C4.083,12.779,4.355,12.914,4.762,12.914z"/>
				<path fill="#B2B2B2" d="M8.837,16.989c0.407,0,0.679-0.136,0.951-0.407c0.272-0.272,0.407-0.679,0.407-0.951
					c0-0.272-0.136-0.679-0.407-0.951c-0.543-0.543-1.358-0.543-1.901,0c-0.272,0.272-0.407,0.679-0.407,0.951
					c0,0.272,0.136,0.679,0.407,0.951C8.157,16.853,8.429,16.989,8.837,16.989z"/>
				<path fill="#B2B2B2" d="M8.837,12.914c0.407,0,0.679-0.136,0.951-0.407c0.272-0.272,0.407-0.679,0.407-0.951
					c0-0.272-0.136-0.679-0.407-0.951c-0.543-0.543-1.358-0.543-1.901,0c-0.272,0.272-0.407,0.679-0.407,0.951
					c0,0.272,0.136,0.679,0.407,0.951C8.157,12.779,8.429,12.914,8.837,12.914z"/>
				<path fill="#B2B2B2" d="M12.911,16.989c0.407,0,0.679-0.136,0.951-0.407c0.272-0.272,0.407-0.543,0.407-0.951
					s-0.136-0.679-0.407-0.951c-0.543-0.543-1.358-0.543-1.901,0c-0.272,0.272-0.407,0.679-0.407,0.951
					c0,0.272,0.136,0.679,0.407,0.951C12.232,16.853,12.504,16.989,12.911,16.989z"/>
				<path fill="#B2B2B2" d="M12.911,12.914c0.407,0,0.679-0.136,0.951-0.407c0.272-0.272,0.407-0.543,0.407-0.951
					c0-0.272-0.136-0.679-0.407-0.951c-0.543-0.543-1.358-0.543-1.901,0c-0.272,0.272-0.407,0.679-0.407,0.951
					c0,0.272,0.136,0.679,0.407,0.951C12.232,12.779,12.504,12.914,12.911,12.914z"/>
				<path fill="#B2B2B2" d="M16.985,16.989c0.407,0,0.679-0.136,0.951-0.407c0.272-0.272,0.407-0.679,0.407-0.951
					c0-0.272-0.136-0.679-0.407-0.951c-0.543-0.543-1.358-0.543-1.901,0c-0.272,0.272-0.407,0.543-0.407,0.951
					c0,0.272,0.136,0.679,0.407,0.951C16.306,16.853,16.578,16.989,16.985,16.989z"/>
				<path fill="#B2B2B2" d="M16.985,12.914c0.407,0,0.679-0.136,0.951-0.407c0.272-0.272,0.407-0.543,0.407-0.951
					c0-0.272-0.136-0.679-0.407-0.951c-0.543-0.543-1.358-0.543-1.901,0c-0.272,0.272-0.407,0.679-0.407,0.951
					c0,0.272,0.136,0.679,0.407,0.951C16.306,12.779,16.578,12.914,16.985,12.914z"/>
			</g>
		</g>
	</g>
</g>
</svg>
