<?xml version="1.0" encoding="utf-8"?>
<!-- Generator: Adobe Illustrator 21.0.0, SVG Export Plug-In . SVG Version: 6.00 Build 0)  -->
<svg version="1.1" id="Layer_1" xmlns="http://www.w3.org/2000/svg" xmlns:xlink="http://www.w3.org/1999/xlink" x="0px" y="0px"
	 viewBox="0 0 25.394 25.394" enable-background="new 0 0 25.394 25.394" xml:space="preserve">
<g>
	<g>
		<g>
			<path fill="#E91E63" d="M24.094,10.031l-1.782-0.302c-0.186-0.599-0.424-1.178-0.716-1.729l1.05-1.469
				c0.446-0.626,0.377-1.48-0.17-2.021l-1.581-1.581c-0.297-0.297-0.69-0.462-1.109-0.462c-0.329,0-0.642,0.101-0.907,0.292
				l-1.475,1.05c-0.573-0.302-1.172-0.552-1.793-0.737L15.315,1.31C15.187,0.552,14.535,0,13.766,0h-2.233
				c-0.769,0-1.422,0.552-1.549,1.31L9.676,3.114C9.082,3.3,8.503,3.544,7.952,3.841L6.493,2.79
				C6.228,2.599,5.909,2.499,5.581,2.499c-0.419,0-0.817,0.164-1.109,0.462L2.886,4.541C2.345,5.082,2.27,5.936,2.716,6.562
				l1.061,1.491C3.485,8.61,3.252,9.188,3.071,9.787L1.31,10.084C0.552,10.212,0,10.864,0,11.633v2.233
				c0,0.769,0.552,1.422,1.31,1.549l1.804,0.308c0.186,0.594,0.43,1.172,0.727,1.724l-1.045,1.453
				c-0.446,0.626-0.377,1.48,0.17,2.021l1.581,1.581c0.297,0.297,0.69,0.462,1.109,0.462c0.329,0,0.642-0.101,0.907-0.292
				l1.491-1.061c0.536,0.281,1.098,0.509,1.676,0.69l0.297,1.782c0.127,0.759,0.78,1.31,1.549,1.31h2.239
				c0.769,0,1.422-0.552,1.549-1.31l0.302-1.782c0.599-0.186,1.178-0.424,1.729-0.716l1.469,1.05
				c0.265,0.191,0.584,0.292,0.912,0.292l0,0c0.419,0,0.812-0.164,1.109-0.462l1.581-1.581c0.541-0.541,0.615-1.395,0.17-2.021
				l-1.05-1.475c0.292-0.557,0.536-1.135,0.716-1.729l1.782-0.297c0.759-0.127,1.31-0.78,1.31-1.549V11.58
				C25.404,10.811,24.852,10.158,24.094,10.031z M24,13.838c0,0.069-0.048,0.127-0.117,0.138l-2.23,0.372
				c-0.281,0.048-0.504,0.255-0.573,0.526c-0.202,0.78-0.51,1.529-0.924,2.225c-0.143,0.244-0.133,0.547,0.032,0.78l1.311,1.848
				c0.037,0.053,0.032,0.133-0.016,0.181l-1.582,1.582c-0.037,0.037-0.074,0.042-0.101,0.042c-0.032,0-0.058-0.011-0.08-0.027
				l-1.842-1.311c-0.228-0.165-0.536-0.175-0.78-0.032c-0.696,0.414-1.444,0.722-2.225,0.924c-0.276,0.069-0.483,0.297-0.526,0.573
				l-0.377,2.23c-0.011,0.069-0.069,0.117-0.138,0.117h-2.236c-0.069,0-0.127-0.048-0.138-0.117l-0.372-2.23
				c-0.048-0.281-0.255-0.504-0.526-0.573c-0.759-0.196-1.492-0.499-2.177-0.892c-0.112-0.064-0.239-0.096-0.361-0.096
				c-0.143,0-0.292,0.042-0.414,0.133L5.75,21.552c-0.027,0.016-0.053,0.027-0.08,0.027c-0.021,0-0.064-0.005-0.101-0.042
				l-1.582-1.582c-0.048-0.048-0.053-0.122-0.016-0.181l1.306-1.832c0.165-0.234,0.175-0.542,0.032-0.786
				c-0.414-0.69-0.733-1.439-0.935-2.219C4.3,14.665,4.077,14.458,3.801,14.41l-2.246-0.382c-0.069-0.011-0.117-0.069-0.117-0.138
				v-2.235c0-0.069,0.048-0.127,0.117-0.138l2.214-0.372c0.281-0.048,0.51-0.255,0.579-0.531c0.196-0.781,0.499-1.535,0.908-2.23
				c0.143-0.244,0.127-0.547-0.037-0.775L3.897,5.75C3.86,5.697,3.865,5.617,3.913,5.569l1.582-1.582
				C5.532,3.95,5.569,3.945,5.596,3.945c0.032,0,0.058,0.011,0.08,0.027l1.832,1.306c0.234,0.165,0.542,0.175,0.786,0.032
				c0.69-0.414,1.439-0.733,2.219-0.935c0.271-0.074,0.478-0.297,0.526-0.573l0.382-2.246c0.011-0.069,0.069-0.117,0.138-0.117
				h2.235c0.069,0,0.127,0.048,0.138,0.117l0.372,2.214c0.048,0.281,0.255,0.51,0.531,0.579c0.802,0.202,1.566,0.515,2.278,0.935
				c0.244,0.143,0.547,0.133,0.781-0.032l1.832-1.317c0.027-0.016,0.053-0.027,0.08-0.027c0.021,0,0.064,0.005,0.101,0.042
				l1.582,1.582c0.048,0.048,0.053,0.122,0.016,0.181l-1.312,1.842c-0.165,0.228-0.175,0.536-0.032,0.781
				c0.414,0.696,0.722,1.444,0.924,2.225c0.069,0.276,0.297,0.483,0.573,0.526l2.23,0.377c0.069,0.011,0.117,0.069,0.117,0.138
				v2.236H24z"/>
			<path fill="#E91E63" d="M12.699,7.214c-3.024,0-5.48,2.456-5.48,5.48s2.456,5.48,5.48,5.48s5.48-2.456,5.48-5.48
				S15.723,7.214,12.699,7.214z M12.699,16.742c-2.233,0-4.047-1.814-4.047-4.047s1.814-4.047,4.047-4.047s4.047,1.814,4.047,4.047
				S14.933,16.742,12.699,16.742z"/>
		</g>
	</g>
</g>
</svg>
