<?xml version="1.0" encoding="utf-8"?>
<!-- Generator: Adobe Illustrator 21.0.0, SVG Export Plug-In . SVG Version: 6.00 Build 0)  -->
<svg version="1.1" id="Layer_1" xmlns="http://www.w3.org/2000/svg" xmlns:xlink="http://www.w3.org/1999/xlink" x="0px" y="0px"
	 width="15.288px" height="26.132px" viewBox="0 0 15.288 26.132" enable-background="new 0 0 15.288 26.132" xml:space="preserve">
<g>
	<path fill="#333D3F" d="M6.372,9.324c0.552,0.312,1.404,0.636,2.556,0.972c1.152,0.336,2.101,0.672,2.845,1.008
		c0.743,0.336,1.38,0.84,1.907,1.512c0.528,0.672,0.792,1.56,0.792,2.664c0,1.408-0.476,2.552-1.428,3.433
		c-0.952,0.879-2.212,1.416-3.78,1.607V24h-2.76v-3.48c-1.136-0.145-2.224-0.439-3.264-0.889c-1.04-0.447-1.96-1.016-2.76-1.703
		l1.512-3.096C2.84,15.6,3.816,16.215,4.92,16.68c1.104,0.464,2.112,0.695,3.024,0.695c0.783,0,1.396-0.144,1.836-0.432
		c0.439-0.288,0.66-0.703,0.66-1.248c0-0.432-0.148-0.788-0.444-1.068c-0.296-0.28-0.672-0.508-1.128-0.684
		c-0.456-0.176-1.084-0.375-1.884-0.6c-1.152-0.32-2.093-0.64-2.82-0.96c-0.729-0.32-1.356-0.808-1.884-1.464
		c-0.528-0.656-0.792-1.528-0.792-2.616c0-1.312,0.451-2.403,1.355-3.276c0.904-0.872,2.124-1.42,3.66-1.644V0.12h2.76v3.24
		c0.96,0.112,1.88,0.32,2.761,0.624c0.879,0.304,1.663,0.688,2.352,1.152L12.912,8.28c-0.864-0.528-1.78-0.948-2.748-1.26
		C9.195,6.708,8.368,6.552,7.68,6.552c-0.656,0-1.176,0.12-1.56,0.36c-0.384,0.24-0.576,0.592-0.576,1.056
		C5.544,8.56,5.82,9.012,6.372,9.324z"/>
</g>
</svg>
