<?xml version="1.0" encoding="utf-8"?>
<!-- Generator: Adobe Illustrator 21.0.0, SVG Export Plug-In . SVG Version: 6.00 Build 0)  -->
<svg version="1.1" id="Layer_1" xmlns="http://www.w3.org/2000/svg" xmlns:xlink="http://www.w3.org/1999/xlink" x="0px" y="0px"
	 width="16px" height="12.46px" viewBox="0 0 16 12.46" enable-background="new 0 0 16 12.46" xml:space="preserve">
<g>
	<g>
		<path fill="#B2B2B2" d="M15.202,12.114l-10.66,0c-0.392,0-0.754-0.273-0.824-0.672c-0.091-0.524,0.295-0.98,0.785-0.98l10.66,0
			c0.392,0,0.754,0.273,0.824,0.672C16.078,11.658,15.692,12.114,15.202,12.114z"/>
		<path fill="#B2B2B2" d="M15.202,7.158l-10.66,0c-0.392,0-0.754-0.273-0.824-0.672c-0.091-0.524,0.295-0.98,0.785-0.98l10.675,0
			c0.348,0,0.678,0.216,0.782,0.56C16.132,6.636,15.726,7.158,15.202,7.158z"/>
		<path fill="#B2B2B2" d="M15.202,1.927l-10.66,0c-0.392,0-0.754-0.273-0.824-0.672c-0.091-0.524,0.295-0.98,0.785-0.98l10.66,0
			c0.392,0,0.754,0.273,0.824,0.672C16.078,1.471,15.692,1.927,15.202,1.927z"/>
		<ellipse fill="#B2B2B2" cx="1.072" cy="1.109" rx="1.072" ry="1.109"/>
		<ellipse fill="#B2B2B2" cx="1.072" cy="6.23" rx="1.072" ry="1.109"/>
		<ellipse fill="#B2B2B2" cx="1.072" cy="11.351" rx="1.072" ry="1.109"/>
	</g>
</g>
</svg>
