<?xml version="1.0" encoding="utf-8"?>
<!-- Generator: Adobe Illustrator 21.0.0, SVG Export Plug-In . SVG Version: 6.00 Build 0)  -->
<svg version="1.1" id="Layer_1" xmlns="http://www.w3.org/2000/svg" xmlns:xlink="http://www.w3.org/1999/xlink" x="0px" y="0px"
	 viewBox="0 0 21.654 23.596" enable-background="new 0 0 21.654 23.596" xml:space="preserve">
<path fill="#E91E63" d="M10.827,23.596c-1.461,0-2.879-0.286-4.215-0.851c-1.289-0.545-2.447-1.326-3.441-2.32
	c-0.994-0.994-1.774-2.152-2.32-3.441C0.286,15.648,0,14.23,0,12.769c0-3.973,2.171-7.621,5.665-9.52
	C6.258,2.928,7,3.147,7.322,3.74c0.322,0.593,0.103,1.334-0.49,1.656c-2.707,1.471-4.389,4.296-4.389,7.373
	c0,4.623,3.761,8.384,8.384,8.384s8.384-3.761,8.384-8.384c0-3.033-1.646-5.839-4.296-7.322c-0.589-0.33-0.799-1.074-0.469-1.662
	c0.329-0.589,1.074-0.799,1.662-0.469c1.652,0.925,3.04,2.272,4.013,3.897c1.003,1.674,1.533,3.596,1.533,5.557
	c0,1.461-0.287,2.879-0.852,4.215c-0.545,1.289-1.326,2.447-2.32,3.441c-0.994,0.994-2.152,1.774-3.442,2.32
	C13.707,23.31,12.288,23.596,10.827,23.596z M10.827,11.928c-0.742,0-1.343-0.601-1.343-1.343V1.343C9.484,0.601,10.085,0,10.827,0
	c0.742,0,1.343,0.601,1.343,1.343v9.242C12.17,11.327,11.569,11.928,10.827,11.928z"/>
</svg>
