<svg xmlns="http://www.w3.org/2000/svg" viewBox="0 0 164.95 55.04"><title>Asset 1</title><path d="M84.37 26.316h-4.706V39.54H76.76V26.316h-4.707V23.93H84.37v2.386zM88.3 28.292c.82 0 1.567.133 2.24.4.673.265 1.25.643 1.728 1.132.48.49.848 1.087 1.106 1.792.26.706.39 1.494.39 2.364 0 .878-.13 1.67-.39 2.375s-.628 1.307-1.106 1.803c-.48.497-1.055.878-1.728 1.145-.673.266-1.42.4-2.24.4-.827 0-1.58-.135-2.256-.4-.677-.267-1.254-.647-1.732-1.145-.48-.496-.85-1.098-1.112-1.803s-.394-1.497-.394-2.375c0-.87.13-1.658.394-2.364.263-.705.634-1.302 1.112-1.792.48-.49 1.056-.867 1.732-1.133.677-.265 1.43-.398 2.256-.398zm0 9.36c.922 0 1.604-.31 2.046-.93s.664-1.525.664-2.72c0-1.195-.222-2.105-.664-2.73-.442-.628-1.124-.94-2.046-.94-.936 0-1.628.314-2.078.944-.45.63-.674 1.538-.674 2.726s.225 2.093.674 2.715c.45.623 1.142.934 2.078.934zM98.47 23.5v9.186h.496c.18 0 .32-.023.426-.07s.21-.143.318-.286l2.753-3.4c.115-.15.243-.267.384-.346.14-.08.32-.118.545-.118h2.44l-3.444 4.112c-.245.324-.512.572-.8.745.152.107.287.233.405.378.12.145.232.3.34.465l3.692 5.376h-2.407c-.21 0-.39-.033-.54-.102-.15-.068-.276-.192-.378-.372l-2.828-4.2c-.1-.165-.205-.272-.313-.323-.11-.05-.272-.075-.487-.075h-.604v5.073h-2.667V23.5h2.666zM113.14 23.93c1.02 0 1.895.098 2.623.292.727.194 1.322.472 1.786.83.463.36.804.797 1.02 1.308s.323 1.087.323 1.728c0 .366-.054.718-.162 1.052-.106.335-.273.648-.5.94-.228.29-.516.555-.864.793-.35.237-.765.438-1.247.604 2.144.48 3.216 1.64 3.216 3.476 0 .662-.126 1.273-.377 1.835-.254.562-.62 1.046-1.103 1.452s-1.076.726-1.78.955c-.706.23-1.512.346-2.42.346h-5.894V23.93h5.376zm-2.473 2.246v4.513h2.31c.994 0 1.744-.18 2.25-.54.51-.36.763-.933.763-1.718 0-.813-.23-1.393-.69-1.737-.46-.346-1.18-.52-2.16-.52h-2.473zm2.937 11.097c.54 0 .993-.065 1.36-.194.366-.13.66-.304.88-.52.22-.216.377-.468.475-.756.096-.287.145-.594.145-.917 0-.34-.054-.643-.162-.912-.107-.27-.277-.5-.507-.69-.23-.19-.527-.337-.89-.44-.364-.1-.802-.15-1.313-.15h-2.926v4.578h2.937zM124.496 25.236c0 .23-.047.446-.14.648-.095.2-.218.377-.374.528-.154.15-.336.27-.545.362-.21.09-.432.135-.668.135-.23 0-.45-.046-.655-.136-.205-.09-.383-.21-.534-.362s-.27-.327-.36-.528c-.09-.202-.136-.418-.136-.648 0-.237.045-.46.136-.67.09-.208.21-.388.36-.54.152-.15.33-.27.535-.36s.424-.135.654-.135c.235 0 .458.046.667.136s.39.21.545.36c.156.152.28.332.373.54s.14.433.14.67zm-.367 3.23V39.54h-2.68V28.465h2.68zM129.364 30.386c.346-.662.756-1.182 1.23-1.56.476-.378 1.037-.567 1.685-.567.51 0 .92.11 1.23.334l-.174 1.997c-.036.13-.088.223-.156.276s-.16.08-.275.08c-.108 0-.27-.017-.48-.053s-.42-.055-.62-.055c-.296 0-.56.044-.79.13-.228.086-.436.21-.62.372-.183.162-.345.358-.485.59-.14.23-.27.492-.394.787v6.822h-2.666V28.464h1.564c.273 0 .465.048.572.146.108.098.18.272.216.524l.162 1.252zM144.23 23.5v16.04h-1.63c-.355 0-.577-.162-.67-.485l-.228-1.07c-.446.513-.96.926-1.538 1.242-.58.317-1.254.476-2.024.476-.604 0-1.158-.126-1.662-.378s-.938-.617-1.3-1.096-.646-1.07-.843-1.776c-.198-.706-.297-1.512-.297-2.42 0-.82.11-1.582.334-2.287.224-.705.544-1.317.96-1.835.42-.52.92-.923 1.502-1.215.583-.29 1.237-.438 1.965-.438.617 0 1.146.097 1.586.29.438.195.83.458 1.176.79V23.5h2.667zm-2.667 7.793c-.302-.367-.63-.626-.987-.777s-.74-.227-1.15-.227c-.402 0-.766.074-1.09.226-.323.15-.6.38-.83.686s-.407.694-.53 1.166c-.122.47-.183 1.027-.183 1.667 0 .648.052 1.197.156 1.646.103.45.253.818.447 1.103s.432.49.712.615c.28.126.593.188.938.188.554 0 1.025-.115 1.414-.346.39-.23.756-.558 1.1-.98v-4.967z"/><g><path d="M60.777 47.408c-.07.275-.17.52-.293.74-.123.217-.27.4-.44.55s-.362.267-.576.347-.444.12-.694.12c-.228 0-.45-.032-.67-.097.02-.066.044-.132.068-.197.023-.064.046-.128.067-.192.013-.04.035-.07.066-.096.03-.023.07-.035.12-.035.04 0 .093.01.155.03.064.02.152.03.267.03.15 0 .293-.02.424-.068.132-.046.25-.117.355-.214.105-.096.198-.22.28-.37.08-.15.147-.327.2-.534l.836-3.24h.668l-.83 3.226zM65.067 45.627l-.897 3.483h-.365c-.088 0-.13-.042-.133-.128l.05-.374c-.195.167-.4.302-.614.403-.215.104-.442.154-.686.154-.19 0-.35-.03-.48-.095-.13-.064-.228-.15-.297-.268-.068-.114-.107-.253-.114-.416-.007-.163.016-.343.066-.54l.572-2.22h.612l-.573 2.22c-.067.264-.06.47.023.613.083.143.25.216.496.216.18 0 .36-.044.54-.13.18-.085.355-.204.527-.356l.66-2.564h.614zM67.917 46.2c-.04.052-.09.077-.146.077-.034 0-.068-.014-.106-.038-.037-.026-.083-.055-.14-.085-.053-.03-.12-.06-.2-.087-.082-.025-.18-.04-.3-.04-.104 0-.2.015-.29.04-.09.027-.17.063-.24.108s-.128.1-.173.16c-.047.062-.08.126-.098.197-.022.09-.017.165.02.224.036.06.092.11.165.154.074.046.16.083.26.116s.2.07.304.107c.105.038.205.08.3.126s.18.102.245.17c.067.07.114.153.14.254.025.1.02.22-.015.36-.04.16-.11.308-.2.444-.094.136-.21.254-.347.354-.14.1-.296.18-.473.235-.178.058-.374.086-.587.086-.243 0-.452-.04-.63-.118-.177-.08-.317-.18-.424-.305l.204-.233c.026-.03.054-.053.084-.07.03-.015.063-.023.102-.023.042 0 .08.017.118.048.038.033.084.068.14.107s.125.073.212.106c.085.03.198.048.338.048.12 0 .228-.017.324-.046.1-.03.183-.073.257-.127.07-.052.132-.112.18-.18.045-.07.078-.144.1-.222.023-.096.018-.176-.018-.238-.035-.063-.09-.117-.163-.162-.074-.044-.16-.084-.262-.117-.1-.032-.202-.067-.306-.103s-.204-.08-.302-.125c-.097-.048-.178-.106-.244-.178-.067-.07-.112-.157-.138-.263-.024-.103-.018-.23.02-.38.034-.132.095-.26.182-.383s.194-.23.324-.323.278-.167.446-.222c.167-.055.35-.082.547-.082.23 0 .426.035.59.107.163.072.295.172.396.298l-.196.226zM69.172 49.165c-.275 0-.468-.077-.576-.23-.107-.153-.124-.374-.05-.663l.55-2.133h-.42c-.037 0-.065-.01-.085-.032-.02-.022-.022-.057-.01-.103l.062-.244.59-.07.418-1.076c.016-.035.038-.063.068-.084.028-.022.063-.033.103-.033h.31l-.308 1.2h1.007l-.115.442h-1.008l-.538 2.09c-.04.147-.03.256.02.327.053.07.136.106.247.106.064 0 .123-.01.174-.025.053-.017.1-.036.138-.058.04-.02.074-.04.103-.057.03-.017.053-.025.07-.025.033 0 .057.02.072.06l.103.292c-.13.098-.277.176-.44.23-.165.057-.325.085-.483.085zM75.212 44.183c.312 0 .573.036.785.108s.376.177.493.31c.117.133.188.293.215.48.025.188.01.398-.05.63-.06.228-.154.438-.283.628-.13.19-.29.355-.48.492-.188.14-.41.245-.656.322-.248.076-.52.115-.818.115h-.79l-.478 1.843h-.664l1.27-4.928h1.456zm-.66 2.555c.192 0 .366-.026.524-.076.16-.05.3-.12.422-.212.124-.09.227-.198.31-.324.083-.127.145-.265.184-.417.08-.314.047-.56-.102-.735-.147-.178-.42-.266-.813-.266h-.79l-.524 2.028h.79zM78.67 45.572c.255 0 .473.042.655.127.182.084.325.204.43.36.103.156.167.344.186.565.022.222-.004.468-.074.74-.07.275-.173.523-.307.743-.135.22-.294.408-.48.564s-.39.275-.614.36-.465.124-.72.124c-.257 0-.477-.04-.66-.125-.185-.083-.328-.202-.432-.358-.104-.156-.168-.344-.188-.564-.02-.22.006-.468.077-.742.07-.273.172-.52.306-.74.132-.223.292-.41.477-.566s.39-.276.618-.36c.227-.086.468-.128.725-.128zm-.8 3.108c.343 0 .63-.114.858-.345.23-.23.396-.552.503-.965.107-.415.105-.737-.004-.97-.11-.23-.337-.348-.68-.348-.175 0-.335.03-.48.09-.144.06-.273.146-.39.258-.114.112-.214.25-.3.415-.083.163-.152.35-.205.555-.105.413-.103.733.008.965.112.23.343.345.69.345zM81.733 45.627l-.897 3.483h-.61l.896-3.483h.61zm.413-1.094c-.016.06-.042.115-.08.168-.036.052-.08.1-.13.138s-.107.072-.167.095-.12.034-.18.034-.112-.012-.158-.034-.083-.056-.11-.095-.048-.086-.06-.137c-.008-.052-.005-.107.01-.167.016-.06.042-.116.078-.17.038-.055.08-.1.13-.14.05-.04.102-.073.16-.097.057-.02.115-.033.176-.033.06 0 .113.012.16.033.05.023.088.056.117.096.03.04.05.086.06.14.01.055.008.112-.007.17zM83.185 46.133c.1-.086.198-.162.3-.23.103-.068.21-.13.316-.178s.22-.087.333-.113.23-.04.355-.04c.19 0 .35.032.48.095s.227.153.295.27c.067.115.104.254.113.417s-.013.343-.063.54l-.57 2.218h-.616l.57-2.218c.068-.264.06-.468-.02-.613-.084-.145-.248-.218-.493-.218-.182 0-.36.043-.54.13-.18.087-.355.206-.526.355l-.662 2.565h-.616l.897-3.483h.368c.087 0 .13.04.13.126l-.05.377zM86.685 49.165c-.275 0-.468-.077-.575-.23-.108-.153-.125-.374-.05-.663l.548-2.133h-.42c-.035 0-.064-.01-.084-.032-.02-.022-.023-.057-.012-.103l.063-.244.59-.07.418-1.076c.017-.035.04-.063.07-.084.027-.022.062-.033.102-.033h.31l-.31 1.2h1.008l-.115.442h-1.006l-.54 2.09c-.037.147-.03.256.022.327s.135.106.248.106c.064 0 .122-.01.173-.025.052-.017.098-.036.137-.058.04-.02.074-.04.103-.057.03-.017.052-.025.07-.025.032 0 .056.02.07.06l.104.292c-.132.098-.278.176-.442.23-.164.057-.325.085-.483.085zM87.843 49.942c-.015-.017-.023-.03-.026-.044-.004-.015-.003-.03.002-.053.003-.016.014-.03.027-.048.015-.017.03-.03.048-.044.03-.025.067-.06.113-.1.046-.042.095-.09.146-.146.05-.057.1-.12.148-.186.05-.067.09-.14.123-.215-.008.003-.016.004-.023.004h-.02c-.12 0-.208-.04-.262-.12-.054-.08-.065-.18-.033-.304.028-.107.09-.2.183-.275.094-.074.203-.112.326-.112.068 0 .126.012.172.038.047.025.083.06.106.104s.038.097.04.154c.004.06-.003.122-.02.19-.026.105-.07.212-.126.322-.06.112-.13.222-.212.33-.085.108-.18.216-.287.32-.107.102-.225.196-.35.283l-.077-.098zM95.282 48.093c.036 0 .064.015.084.044l.19.286c-.26.233-.553.416-.873.546-.322.13-.687.195-1.095.195-.354 0-.658-.062-.915-.183-.258-.123-.46-.296-.606-.518-.147-.22-.237-.485-.27-.796-.032-.31 0-.65.095-1.02s.24-.713.438-1.022c.196-.31.43-.575.698-.798.27-.222.568-.396.896-.517.327-.122.67-.185 1.028-.185.35 0 .645.058.885.17.238.11.436.264.59.457l-.3.307c-.02.02-.042.04-.066.054-.024.016-.056.023-.093.023-.04 0-.086-.023-.134-.067-.05-.044-.114-.095-.195-.15-.083-.054-.19-.104-.323-.148s-.305-.067-.516-.067c-.255 0-.5.045-.732.133-.233.088-.448.215-.645.383-.195.17-.366.372-.514.614-.147.24-.26.512-.338.814-.08.307-.105.58-.08.822.027.24.095.443.204.61.11.166.257.292.442.38.185.087.397.13.638.13.146 0 .282-.01.404-.025.123-.018.238-.044.348-.08s.215-.085.314-.14c.1-.057.203-.123.31-.2.047-.036.09-.052.13-.052zM97.948 44.045l-1.306 5.065h-.61l1.305-5.065h.61zM99.178 45.627l-.898 3.483h-.61l.897-3.483h.61zm.412-1.094c-.015.06-.04.115-.08.168-.035.052-.08.1-.13.138s-.106.072-.166.095-.12.034-.18.034-.11-.012-.157-.034-.082-.056-.11-.095-.048-.086-.06-.137c-.008-.052-.005-.107.01-.167.016-.06.042-.116.078-.17.037-.055.08-.1.13-.14.05-.04.103-.073.16-.097.058-.02.116-.033.175-.033.06 0 .113.012.162.033.047.023.087.056.117.096.028.04.048.086.058.14.01.055.007.112-.008.17zM102.447 46.246c-.025.025-.05.045-.07.06s-.05.02-.082.02-.068-.015-.102-.044c-.033-.027-.077-.06-.13-.094-.05-.034-.117-.065-.198-.095-.08-.028-.186-.042-.313-.042-.172 0-.33.03-.478.09s-.278.15-.396.265c-.12.115-.22.253-.308.416-.086.163-.155.346-.207.548-.055.21-.08.398-.073.563.006.164.038.302.098.413s.146.196.255.254c.11.06.242.088.398.088.15 0 .277-.018.383-.053.104-.036.195-.076.27-.12.074-.042.138-.082.188-.117.053-.036.1-.054.14-.054.05 0 .084.02.103.06l.114.225c-.1.093-.207.174-.32.24-.113.066-.23.12-.353.166s-.248.078-.374.1c-.128.02-.254.03-.38.03-.218 0-.41-.04-.576-.12-.166-.08-.3-.196-.396-.35-.098-.152-.158-.34-.18-.562-.02-.223.008-.476.08-.76.067-.26.165-.5.294-.72.13-.22.284-.41.463-.567.18-.16.383-.283.608-.373.226-.09.47-.134.734-.134.245 0 .45.04.618.12.166.077.304.19.41.333l-.218.22zM104.488 44.045l-.768 2.98h.158c.045 0 .085-.005.12-.018.033-.014.073-.04.117-.077l1.404-1.18c.04-.04.082-.07.124-.09.04-.023.092-.034.15-.034h.555l-1.637 1.365c-.08.08-.163.14-.246.183.034.028.064.06.088.096.024.034.045.074.063.12l.92 1.72h-.547c-.052 0-.095-.01-.13-.025-.032-.017-.057-.05-.073-.095l-.776-1.428c-.02-.047-.047-.08-.076-.094-.03-.016-.078-.023-.147-.023h-.175l-.43 1.665h-.616l1.306-5.065h.616zM105.81 49.942c-.015-.017-.023-.03-.026-.044-.004-.015-.003-.03.002-.053.004-.016.015-.03.028-.048.015-.017.03-.03.048-.044.03-.025.067-.06.113-.1.046-.042.095-.09.146-.146.052-.057.102-.12.15-.186.048-.067.09-.14.122-.215-.008.003-.016.004-.023.004h-.022c-.12 0-.207-.04-.26-.12-.055-.08-.066-.18-.034-.304.028-.107.09-.2.183-.275.094-.074.203-.112.326-.112.068 0 .126.012.172.038.047.025.083.06.106.104s.04.097.042.154c.003.06-.004.122-.02.19-.027.105-.07.212-.127.322-.06.112-.13.222-.212.33-.085.108-.18.216-.287.32-.106.102-.224.196-.35.283l-.076-.098zM110.064 46.118c.24-.185.484-.324.73-.416.245-.09.503-.138.773-.138.195 0 .36.033.495.098.135.063.238.152.313.268.073.115.115.253.126.416s-.008.342-.058.537l-.574 2.228h-.27c-.062 0-.105-.008-.132-.028-.027-.02-.04-.058-.045-.115l.017-.33c-.114.085-.223.16-.326.226-.103.064-.208.12-.316.165s-.22.08-.335.103-.24.037-.373.037c-.135 0-.257-.02-.366-.057-.11-.038-.198-.095-.267-.17-.07-.076-.114-.17-.137-.286-.02-.117-.012-.254.03-.412.034-.137.106-.27.215-.396s.26-.24.456-.34c.195-.098.438-.18.726-.24.29-.064.633-.1 1.033-.11l.07-.27c.07-.27.063-.477-.018-.614-.082-.14-.235-.208-.46-.208-.15 0-.282.02-.395.057-.11.04-.21.08-.297.128-.087.047-.162.09-.226.127-.064.04-.123.057-.176.057-.04 0-.073-.01-.098-.032-.023-.022-.042-.048-.055-.08l-.056-.202zm1.61 1.425c-.283.01-.53.03-.736.066-.208.034-.382.08-.52.138-.142.06-.248.125-.325.203-.075.08-.126.166-.15.263-.024.092-.03.172-.017.237.012.066.04.12.08.163.04.042.093.073.157.094.065.02.138.03.218.03.108 0 .21-.013.306-.034.095-.02.188-.053.277-.095s.178-.09.265-.147c.087-.058.174-.122.263-.196l.185-.72zM114.146 46.133c.1-.086.198-.162.3-.23.103-.068.21-.13.316-.178s.22-.087.332-.113.23-.04.355-.04c.19 0 .35.032.48.095.128.063.226.153.294.27.067.115.104.254.113.417s-.013.343-.063.54l-.57 2.218h-.616l.57-2.218c.068-.264.06-.468-.02-.613-.084-.145-.248-.218-.493-.218-.182 0-.36.043-.54.13-.18.087-.355.206-.526.355l-.663 2.565h-.615l.897-3.483h.367c.087 0 .13.04.13.126l-.05.377zM120.825 44.045l-1.306 5.065h-.364c-.088 0-.132-.042-.133-.128l.055-.422c-.195.178-.403.322-.62.433-.22.11-.454.165-.704.165-.2 0-.37-.04-.514-.115s-.253-.19-.328-.338c-.076-.15-.117-.336-.12-.558-.006-.222.03-.48.103-.767.066-.258.162-.496.287-.717.126-.222.274-.414.444-.576.17-.162.36-.29.572-.384s.433-.14.667-.14c.213 0 .386.037.52.11.134.07.244.17.33.3l.497-1.93h.613zm-1.233 2.41c-.074-.153-.17-.26-.288-.32s-.26-.092-.424-.092c-.323 0-.602.115-.836.348-.233.232-.405.563-.516.99-.06.228-.09.42-.092.583s.02.295.07.4c.048.103.12.18.218.228.1.048.217.072.357.072.202 0 .39-.046.564-.138s.345-.22.514-.39l.434-1.678zM126.116 48.093c.036 0 .064.015.084.044l.19.286c-.26.233-.553.416-.873.546-.322.13-.687.195-1.095.195-.354 0-.658-.062-.915-.183-.258-.123-.46-.296-.606-.518-.146-.22-.236-.485-.27-.796-.03-.31 0-.65.096-1.02s.24-.713.438-1.022c.196-.31.43-.575.698-.798.27-.222.568-.396.896-.517.327-.122.67-.185 1.028-.185.35 0 .645.058.885.17.24.11.437.264.59.457l-.298.307c-.02.02-.043.04-.067.054-.025.016-.057.023-.094.023-.04 0-.085-.023-.133-.067-.05-.044-.114-.095-.195-.15-.083-.054-.19-.104-.323-.148-.134-.044-.306-.067-.517-.067-.254 0-.5.045-.73.133-.234.088-.45.215-.646.383-.195.17-.366.372-.514.614-.146.24-.26.512-.337.814-.08.307-.105.58-.08.822.027.24.095.443.204.61.11.166.257.292.442.38.185.087.397.13.638.13.146 0 .282-.01.404-.025.123-.018.238-.044.348-.08s.215-.085.314-.14c.1-.057.203-.123.31-.2.047-.036.09-.052.13-.052zM129.155 45.572c.255 0 .473.042.655.127.182.084.326.204.43.36.103.156.166.344.186.565.02.222-.006.468-.075.74-.07.275-.172.523-.307.743-.133.22-.292.408-.477.564-.184.156-.39.275-.615.36s-.464.124-.72.124c-.256 0-.476-.04-.66-.125-.184-.083-.328-.202-.43-.358-.105-.156-.17-.344-.188-.564-.02-.22.005-.468.076-.742.07-.273.172-.52.306-.74s.293-.41.478-.566c.184-.156.39-.276.618-.36.227-.086.468-.128.725-.128zm-.8 3.108c.343 0 .63-.114.858-.345.23-.23.396-.552.503-.965.106-.415.104-.737-.004-.97-.11-.23-.338-.348-.682-.348-.174 0-.334.03-.48.09-.144.06-.273.146-.39.258-.114.112-.214.25-.3.415-.083.163-.152.35-.205.555-.106.413-.104.733.007.965.113.23.344.345.692.345zM130.674 49.11l.898-3.483h.368c.087 0 .13.042.13.127l-.048.357c.17-.157.347-.286.532-.388.187-.1.386-.15.597-.15.234 0 .407.064.52.196.11.13.172.306.18.53.08-.127.175-.236.277-.328.102-.092.21-.168.324-.227.115-.06.23-.104.35-.13s.234-.042.35-.042c.183 0 .34.03.467.09.13.058.228.142.298.255.072.112.112.25.123.414s-.012.35-.065.562l-.573 2.218h-.617l.572-2.218c.07-.273.064-.48-.02-.62s-.236-.212-.46-.212c-.102 0-.2.018-.302.053-.1.036-.192.088-.28.156-.085.067-.162.155-.23.26-.065.103-.117.225-.152.362l-.57 2.218h-.615l.57-2.218c.072-.28.07-.488-.006-.626s-.225-.206-.44-.206c-.15 0-.3.04-.45.122-.15.08-.296.192-.44.332l-.668 2.596h-.618zM136.33 49.11l.898-3.483h.368c.087 0 .13.042.13.127l-.048.357c.17-.157.347-.286.532-.388.187-.1.386-.15.597-.15.233 0 .406.064.52.196.11.13.17.306.178.53.082-.127.176-.236.278-.328.102-.092.21-.168.324-.227.114-.06.23-.104.35-.13s.233-.042.348-.042c.184 0 .34.03.468.09.13.058.228.142.298.255.073.112.113.25.124.414s-.012.35-.065.562l-.572 2.218h-.617l.573-2.218c.07-.273.064-.48-.02-.62s-.236-.212-.46-.212c-.102 0-.2.018-.302.053-.1.036-.19.088-.278.156-.086.067-.163.155-.23.26-.066.103-.118.225-.153.362l-.572 2.218h-.615l.57-2.218c.072-.28.07-.488-.006-.626s-.224-.206-.44-.206c-.15 0-.3.04-.45.122-.148.08-.295.192-.44.332l-.667 2.596h-.62zM145.75 45.627l-.896 3.483h-.365c-.09 0-.132-.042-.134-.128l.05-.374c-.195.167-.4.302-.614.403-.215.104-.442.154-.686.154-.19 0-.35-.03-.48-.095-.13-.064-.228-.15-.297-.268-.07-.114-.108-.253-.115-.416-.008-.163.015-.343.065-.54l.572-2.22h.612l-.573 2.22c-.066.264-.06.47.024.613.083.143.25.216.496.216.18 0 .36-.044.54-.13.18-.085.355-.204.527-.356l.66-2.564h.614zM147.167 46.133c.1-.086.198-.162.3-.23.103-.068.21-.13.316-.178s.22-.087.332-.113.23-.04.355-.04c.19 0 .35.032.48.095s.227.153.295.27c.067.115.104.254.113.417s-.013.343-.063.54l-.57 2.218h-.616l.57-2.218c.067-.264.06-.468-.022-.613-.083-.145-.247-.218-.492-.218-.182 0-.36.043-.54.13-.18.087-.355.206-.526.355l-.662 2.565h-.615l.897-3.483h.368c.087 0 .13.04.13.126l-.05.377zM151.203 45.627l-.898 3.483h-.61l.897-3.483h.61zm.412-1.094c-.015.06-.04.115-.08.168-.035.052-.08.1-.13.138s-.106.072-.166.095-.12.034-.18.034-.112-.012-.158-.034-.082-.056-.11-.095-.048-.086-.06-.137c-.008-.052-.005-.107.01-.167.016-.06.042-.116.078-.17.037-.055.08-.1.13-.14.05-.04.103-.073.16-.097.058-.02.116-.033.175-.033.06 0 .113.012.162.033.047.023.087.056.117.096.03.04.05.086.06.14.01.055.007.112-.01.17zM154.473 46.246c-.025.025-.05.045-.07.06s-.05.02-.082.02-.067-.015-.1-.044c-.034-.027-.078-.06-.13-.094-.052-.034-.118-.065-.2-.095-.08-.028-.185-.042-.312-.042-.172 0-.33.03-.478.09s-.278.15-.396.265c-.12.115-.22.253-.308.416-.086.163-.155.346-.207.548-.056.21-.08.398-.074.563.006.164.038.302.098.413s.146.196.255.254c.108.06.24.088.397.088.148 0 .276-.018.382-.053.103-.036.194-.076.268-.12.075-.042.14-.082.19-.117.05-.036.098-.054.14-.054.05 0 .082.02.1.06l.115.225c-.1.093-.207.174-.32.24-.113.066-.23.12-.353.166s-.248.078-.374.1c-.128.02-.254.03-.38.03-.218 0-.41-.04-.576-.12-.166-.08-.3-.196-.396-.35-.098-.152-.158-.34-.18-.562-.02-.223.008-.476.08-.76.067-.26.165-.5.294-.72.13-.22.284-.41.463-.567.182-.16.384-.283.61-.373.225-.09.47-.134.733-.134.245 0 .45.04.618.12.167.077.305.19.41.333l-.217.22zM155.275 46.118c.24-.185.484-.324.73-.416.245-.09.503-.138.773-.138.195 0 .36.033.495.098.135.063.238.152.313.268.073.115.115.253.126.416s-.01.342-.06.537l-.573 2.228h-.272c-.06 0-.104-.008-.13-.028-.028-.02-.042-.058-.046-.115l.016-.33c-.114.085-.223.16-.326.226-.104.064-.21.12-.317.165s-.22.08-.335.103-.238.037-.372.037c-.135 0-.257-.02-.366-.057-.11-.038-.2-.095-.268-.17-.07-.076-.114-.17-.137-.286-.02-.117-.012-.254.03-.412.034-.137.106-.27.215-.396s.26-.24.455-.34c.195-.098.438-.18.726-.24.29-.064.633-.1 1.033-.11l.07-.27c.07-.27.063-.477-.018-.614-.082-.14-.235-.208-.46-.208-.15 0-.282.02-.395.057-.11.04-.21.08-.297.128-.087.047-.162.09-.226.127-.063.04-.122.057-.175.057-.04 0-.073-.01-.098-.032-.023-.022-.042-.048-.055-.08l-.057-.202zm1.61 1.425c-.283.01-.53.03-.736.066-.21.034-.383.08-.522.138-.14.06-.247.125-.324.203-.075.08-.126.166-.15.263-.024.092-.03.172-.017.237.012.066.04.12.08.163.04.042.093.073.157.094.065.02.138.03.218.03.107 0 .21-.013.305-.034.095-.02.188-.053.277-.095s.178-.09.265-.147c.086-.058.173-.122.262-.196l.184-.72zM159.067 49.165c-.275 0-.468-.077-.575-.23-.108-.153-.125-.374-.05-.663l.548-2.133h-.42c-.035 0-.064-.01-.084-.032-.02-.022-.023-.057-.012-.103l.063-.244.59-.07.418-1.076c.017-.035.04-.063.07-.084.027-.022.062-.033.102-.033h.31l-.31 1.2h1.008l-.115.442h-1.006l-.54 2.09c-.037.147-.03.256.022.327s.135.106.248.106c.064 0 .122-.01.173-.025.052-.017.098-.036.137-.058.04-.02.074-.04.103-.057.03-.017.052-.025.07-.025.032 0 .056.02.07.06l.104.292c-.13.098-.276.176-.44.23-.163.057-.324.085-.483.085zM163.412 48.623c-.1.09-.21.17-.333.238-.124.068-.25.124-.383.167-.13.044-.265.076-.398.098s-.265.033-.39.033c-.24 0-.453-.04-.635-.12-.183-.083-.327-.202-.435-.358-.107-.158-.172-.353-.195-.584-.022-.232.005-.498.08-.797.064-.245.16-.472.29-.683s.283-.395.462-.55c.18-.153.382-.274.606-.363.225-.088.463-.132.715-.132.208 0 .393.034.553.104.16.07.288.17.384.302.096.133.154.296.18.49.022.192.002.414-.063.66-.023.097-.05.16-.08.193-.028.032-.07.05-.128.05h-2.328c-.05.22-.07.41-.058.573s.052.3.12.407c.07.11.162.19.28.244.12.055.263.082.428.082.153 0 .29-.02.41-.055.12-.034.226-.073.317-.113.092-.042.17-.08.23-.115.064-.036.115-.054.154-.054.05 0 .085.02.102.06l.116.225zm-.074-1.635c.037-.143.05-.27.04-.39-.01-.118-.042-.22-.096-.306-.055-.087-.132-.152-.23-.2-.098-.046-.217-.07-.356-.07-.294 0-.547.085-.762.257-.215.17-.383.405-.5.708h1.904z"/></g><g opacity=".84"><radialGradient id="a" cx="-13748.659" cy="-3645.13" r="58.12" fx="-13793.74" fy="-3645.13" gradientTransform="matrix(.4 0 0 -.1 5755.26 -307.78)" gradientUnits="userSpaceOnUse"><stop offset="0" stop-color="#262626"/><stop offset=".29" stop-color="#848484" stop-opacity=".57"/><stop offset=".69" stop-color="#DFDFDF" stop-opacity=".15"/><stop offset="1" stop-color="#FFF" stop-opacity="0"/></radialGradient><ellipse opacity=".67" fill="url(#a)" cx="62.13" cy="49.35" rx="24.06" ry="5.69"/><radialGradient id="b" cx="-10765.071" cy="-3645.13" r="58.12" fx="-10810.147" fy="-3645.13" gradientTransform="matrix(-.4 0 0 -.1 -4434.21 -307.78)" gradientUnits="userSpaceOnUse"><stop offset="0" stop-color="#262626"/><stop offset=".29" stop-color="#848484" stop-opacity=".57"/><stop offset=".69" stop-color="#DFDFDF" stop-opacity=".15"/><stop offset="1" stop-color="#FFF" stop-opacity="0"/></radialGradient><ellipse opacity=".67" fill="url(#b)" cx="24.06" cy="49.35" rx="24.06" ry="5.69"/></g><path fill="#2C2420" d="M72.71 18.76C62.77 13.4 50.37 17.106 45 27.04L34.26 46.36l.42.38c5.44 3.12 9.95 3.54 15.31 1.94 5.14-1.537 9.457-5.056 12-9.78l10.83-20-.11-.14z"/><path fill="#EE463D" d="M39 48.17c2.437-4.656 2.85-10.11 1.14-15.08-1.607-5.17-5.205-9.487-10-12l-20-10.47-.16.31c-5.18 9.91-1.353 22.14 8.55 27.33l20.18 10.56.29-.65z"/><path fill="#4E93AF" d="M38.93 48.56c10.245-5.217 14.337-17.74 9.15-28L37.66 0l-.31.16c-10.165 5.16-14.225 17.582-9.07 27.75l10.51 20.72.14-.07z"/><circle fill="#FFF" cx="61.74" cy="23.61" r="1.47"/></svg>