<?xml version="1.0" encoding="utf-8"?>
<!-- Generator: Adobe Illustrator 21.0.0, SVG Export Plug-In . SVG Version: 6.00 Build 0)  -->
<svg version="1.1" id="Layer_1" xmlns="http://www.w3.org/2000/svg" xmlns:xlink="http://www.w3.org/1999/xlink" x="0px" y="0px"
	 viewBox="0 0 21.611 25.393" enable-background="new 0 0 21.611 25.393" xml:space="preserve">
<g>
	<g>
		<g>
			<path fill="#E91E63" d="M10.707,13.669c0.026,0,0.053,0,0.084,0c0.011,0,0.021,0,0.032,0c0.016,0,0.037,0,0.053,0
				c1.539-0.026,2.784-0.567,3.704-1.602c2.023-2.28,1.686-6.189,1.65-6.562c-0.131-2.8-1.455-4.14-2.548-4.765
				C12.866,0.273,11.915,0.021,10.854,0h-0.037c-0.005,0-0.016,0-0.016,0h-0.037c-0.583,0-1.728,0.095-2.826,0.72
				C6.835,1.345,5.49,2.685,5.359,5.506c-0.037,0.373-0.373,4.282,1.65,6.562C7.923,13.102,9.168,13.643,10.707,13.669z
				 M6.761,5.634c0-0.016,0.005-0.032,0.005-0.042C6.939,1.824,9.614,1.42,10.76,1.42h0.021c0.011,0,0.026,0,0.042,0
				c1.419,0.032,3.831,0.61,3.994,4.172c0,0.016,0,0.032,0.005,0.042c0.005,0.037,0.373,3.61-1.298,5.491
				c-0.662,0.746-1.545,1.114-2.706,1.125c-0.011,0-0.016,0-0.026,0l0,0c-0.011,0-0.016,0-0.026,0
				c-1.156-0.011-2.044-0.378-2.701-1.125C6.398,9.255,6.755,5.665,6.761,5.634z"/>
			<path fill="#E91E63" d="M21.61,20.168c0-0.005,0-0.011,0-0.016c0-0.042-0.005-0.084-0.005-0.132
				c-0.032-1.042-0.1-3.478-2.383-4.256c-0.016-0.005-0.037-0.011-0.053-0.016c-2.373-0.605-4.346-1.973-4.367-1.989
				c-0.321-0.226-0.763-0.147-0.989,0.174c-0.226,0.321-0.147,0.763,0.174,0.989c0.089,0.063,2.183,1.521,4.804,2.194
				c1.226,0.437,1.363,1.747,1.4,2.946c0,0.047,0,0.089,0.005,0.132c0.005,0.474-0.026,1.205-0.11,1.626
				c-0.852,0.484-4.193,2.157-9.276,2.157c-5.061,0-8.423-1.678-9.281-2.162c-0.084-0.421-0.121-1.152-0.11-1.626
				c0-0.042,0.005-0.084,0.005-0.132c0.037-1.2,0.174-2.51,1.4-2.946c2.62-0.673,4.714-2.136,4.804-2.194
				c0.321-0.226,0.4-0.668,0.174-0.989c-0.226-0.321-0.668-0.4-0.989-0.174c-0.021,0.016-1.984,1.384-4.367,1.989
				c-0.021,0.005-0.037,0.011-0.053,0.016c-2.283,0.784-2.352,3.22-2.383,4.256c0,0.047,0,0.089-0.005,0.132
				c0,0.005,0,0.011,0,0.016c-0.005,0.274-0.011,1.678,0.268,2.383c0.053,0.137,0.147,0.253,0.274,0.331
				c0.158,0.105,3.941,2.515,10.27,2.515s10.112-2.415,10.27-2.515c0.121-0.079,0.221-0.195,0.274-0.331
				C21.62,21.847,21.615,20.442,21.61,20.168z"/>
		</g>
	</g>
</g>
</svg>
