<?xml version="1.0" encoding="utf-8"?>
<!-- Generator: Adobe Illustrator 21.0.0, SVG Export Plug-In . SVG Version: 6.00 Build 0)  -->
<svg version="1.1" id="Layer_1" xmlns="http://www.w3.org/2000/svg" xmlns:xlink="http://www.w3.org/1999/xlink" x="0px" y="0px"
	 viewBox="0 0 502.6 90" style="enable-background:new 0 0 502.6 90;" xml:space="preserve">
<style type="text/css">
	.st0{fill:#F27006;}
	.st1{fill:#878787;}
</style>
<g>
	<g>
		<path class="st0" d="M279.8,31c0,15.8-12.8,28.5-28.5,28.5c-15.8,0-28.5-12.8-28.5-28.5c0-15.8,12.8-28.5,28.5-28.5
			C267.1,2.5,279.8,15.3,279.8,31z M251.3,5c-14.4,0-26,11.6-26,26c0,14.3,11.7,26,26,26c14.4,0,26-11.6,26-26
			C277.3,16.6,265.6,5,251.3,5z"/>
	</g>
	<g>
		<path class="st0" d="M248.5,45.3c-0.4-2.1,0.8-3.7,2.5-3.8c1.7-0.1,3.1,1.4,3.1,3.2c-0.1,1.8-1.4,3.1-3.4,2.8
			C249.7,47.3,248.8,46.4,248.5,45.3z M249.7,37.4l-0.6-21c0-1.1,0.8-1.9,1.9-1.9h0.6c1.2,0,2.1,1,2.1,2.1l-0.6,20.8
			c0,0.1-0.1,0.2-0.2,0.2h-3C249.7,37.6,249.7,37.5,249.7,37.4z"/>
	</g>
</g>
<g>
	<path class="st1" d="M11.5,84.1v-5.3l-3.9-7.2h1.8l1.8,3.4c0.5,0.9,0.8,1.7,1.2,2.6h0c0.4-0.8,0.8-1.6,1.3-2.6l1.8-3.4h1.8
		l-4.2,7.1v5.3H11.5z"/>
	<path class="st1" d="M25.3,79.6c0,3.3-2.3,4.7-4.4,4.7c-2.4,0-4.3-1.8-4.3-4.6c0-3,2-4.7,4.4-4.7C23.5,75,25.3,76.9,25.3,79.6z
		 M18.2,79.7c0,2,1.1,3.4,2.7,3.4c1.5,0,2.7-1.5,2.7-3.5c0-1.5-0.8-3.4-2.7-3.4S18.2,78,18.2,79.7z"/>
	<path class="st1" d="M34.8,81.7c0,0.9,0,1.7,0.1,2.4h-1.4l-0.1-1.5h0c-0.4,0.7-1.4,1.7-2.9,1.7c-1.4,0-3.1-0.8-3.1-3.9v-5.2h1.6
		v4.9c0,1.7,0.5,2.8,2,2.8c1.1,0,1.8-0.8,2.1-1.5c0.1-0.2,0.1-0.5,0.1-0.8v-5.5h1.6V81.7z"/>
	<path class="st1" d="M49.1,71v10.8c0,0.8,0,1.7,0.1,2.3h-1.5l-0.1-1.5h0c-0.5,1-1.6,1.8-3,1.8c-2.2,0-3.8-1.8-3.8-4.5
		c0-3,1.8-4.8,4-4.8c1.4,0,2.3,0.6,2.7,1.4h0V71H49.1z M47.5,78.8c0-0.2,0-0.5-0.1-0.7c-0.2-1-1.1-1.9-2.3-1.9
		c-1.7,0-2.7,1.5-2.7,3.4c0,1.8,0.9,3.3,2.6,3.3c1.1,0,2.1-0.7,2.4-1.9c0.1-0.2,0.1-0.4,0.1-0.7V78.8z"/>
	<path class="st1" d="M59.8,79.6c0,3.3-2.3,4.7-4.4,4.7c-2.4,0-4.3-1.8-4.3-4.6c0-3,2-4.7,4.4-4.7C58.1,75,59.8,76.9,59.8,79.6z
		 M52.8,79.7c0,2,1.1,3.4,2.7,3.4c1.5,0,2.7-1.5,2.7-3.5c0-1.5-0.8-3.4-2.7-3.4S52.8,78,52.8,79.7z"/>
	<path class="st1" d="M61.9,77.6c0-0.9,0-1.7-0.1-2.4h1.4l0.1,1.5h0c0.4-0.8,1.5-1.7,2.9-1.7c1.2,0,3.2,0.7,3.2,3.8v5.3h-1.6V79
		c0-1.4-0.5-2.6-2.1-2.6c-1.1,0-1.9,0.8-2.2,1.7c-0.1,0.2-0.1,0.5-0.1,0.8v5.4h-1.6V77.6z"/>
	<path class="st1" d="M73.2,71.5l-0.3,4.4h-1l-0.3-4.4H73.2z"/>
	<path class="st1" d="M77.8,72.6v2.6h2.3v1.2h-2.3v4.8c0,1.1,0.3,1.7,1.2,1.7c0.4,0,0.7-0.1,0.9-0.1l0.1,1.2
		c-0.3,0.1-0.8,0.2-1.4,0.2c-0.8,0-1.4-0.2-1.8-0.7c-0.5-0.5-0.6-1.3-0.6-2.3v-4.9h-1.4v-1.2h1.4v-2.1L77.8,72.6z"/>
	<path class="st1" d="M85.9,71h1.6v5.6h0c0.3-0.5,0.7-0.9,1.2-1.1c0.5-0.3,1.1-0.5,1.7-0.5c1.2,0,3.1,0.7,3.1,3.8v5.3h-1.6V79
		c0-1.4-0.5-2.7-2.1-2.7c-1,0-1.9,0.7-2.2,1.6c-0.1,0.2-0.1,0.5-0.1,0.8v5.4h-1.6V71z"/>
	<path class="st1" d="M101.1,84.1l-0.1-1.1h-0.1c-0.5,0.7-1.5,1.3-2.7,1.3c-1.8,0-2.7-1.3-2.7-2.6c0-2.2,1.9-3.3,5.4-3.3v-0.2
		c0-0.7-0.2-2.1-2-2.1c-0.8,0-1.7,0.3-2.3,0.7l-0.4-1.1c0.7-0.5,1.8-0.8,2.9-0.8c2.7,0,3.4,1.9,3.4,3.6V82c0,0.8,0,1.5,0.1,2.1
		H101.1z M100.8,79.6c-1.8,0-3.8,0.3-3.8,2c0,1.1,0.7,1.5,1.5,1.5c1.2,0,1.9-0.7,2.2-1.5c0.1-0.2,0.1-0.4,0.1-0.5V79.6z"/>
	<path class="st1" d="M105.5,75.2l1.8,5c0.3,0.8,0.5,1.5,0.7,2.3h0.1c0.2-0.7,0.5-1.5,0.8-2.3l1.7-5h1.7l-3.5,8.9h-1.5l-3.4-8.9
		H105.5z"/>
	<path class="st1" d="M114.4,80c0,2.2,1.4,3.1,3.1,3.1c1.2,0,1.9-0.2,2.5-0.5l0.3,1.2c-0.6,0.3-1.5,0.6-3,0.6
		c-2.7,0-4.4-1.8-4.4-4.5s1.6-4.8,4.2-4.8c2.9,0,3.7,2.6,3.7,4.2c0,0.3,0,0.6-0.1,0.8H114.4z M119.2,78.8c0-1-0.4-2.6-2.2-2.6
		c-1.6,0-2.4,1.5-2.5,2.6H119.2z"/>
	<path class="st1" d="M128.6,72.6v2.6h2.3v1.2h-2.3v4.8c0,1.1,0.3,1.7,1.2,1.7c0.4,0,0.7-0.1,0.9-0.1l0.1,1.2
		c-0.3,0.1-0.8,0.2-1.4,0.2c-0.8,0-1.4-0.2-1.8-0.7c-0.5-0.5-0.6-1.3-0.6-2.3v-4.9h-1.4v-1.2h1.4v-2.1L128.6,72.6z"/>
	<path class="st1" d="M132.8,71h1.6v5.6h0c0.3-0.5,0.7-0.9,1.2-1.1c0.5-0.3,1.1-0.5,1.7-0.5c1.2,0,3.1,0.7,3.1,3.8v5.3h-1.6V79
		c0-1.4-0.5-2.7-2.1-2.7c-1.1,0-1.9,0.7-2.2,1.6c-0.1,0.2-0.1,0.5-0.1,0.8v5.4h-1.6V71z"/>
	<path class="st1" d="M143.9,80c0,2.2,1.4,3.1,3.1,3.1c1.2,0,1.9-0.2,2.5-0.5l0.3,1.2c-0.6,0.3-1.5,0.6-3,0.6
		c-2.7,0-4.4-1.8-4.4-4.5s1.6-4.8,4.2-4.8c2.9,0,3.7,2.6,3.7,4.2c0,0.3,0,0.6-0.1,0.8H143.9z M148.7,78.8c0-1-0.4-2.6-2.2-2.6
		c-1.6,0-2.4,1.5-2.5,2.6H148.7z"/>
	<path class="st1" d="M156.1,78.1c0-1.1,0-2.1-0.1-2.9h1.5l0.1,1.5h0c0.7-1.1,1.7-1.7,3.2-1.7c2.2,0,3.8,1.8,3.8,4.5
		c0,3.2-2,4.8-4.1,4.8c-1.2,0-2.2-0.5-2.7-1.4h0v4.8h-1.6V78.1z M157.8,80.5c0,0.2,0,0.5,0.1,0.7c0.3,1.1,1.3,1.9,2.4,1.9
		c1.7,0,2.7-1.4,2.7-3.4c0-1.8-0.9-3.3-2.7-3.3c-1.1,0-2.1,0.8-2.5,2c-0.1,0.2-0.1,0.4-0.1,0.7V80.5z"/>
	<path class="st1" d="M167.5,80c0,2.2,1.4,3.1,3.1,3.1c1.2,0,1.9-0.2,2.5-0.5l0.3,1.2c-0.6,0.3-1.5,0.6-3,0.6
		c-2.7,0-4.4-1.8-4.4-4.5s1.6-4.8,4.2-4.8c2.9,0,3.7,2.6,3.7,4.2c0,0.3,0,0.6-0.1,0.8H167.5z M172.3,78.8c0-1-0.4-2.6-2.2-2.6
		c-1.6,0-2.4,1.5-2.5,2.6H172.3z"/>
	<path class="st1" d="M175.9,78c0-1.1,0-2-0.1-2.8h1.4l0.1,1.8h0.1c0.4-1.2,1.4-2,2.5-2c0.2,0,0.3,0,0.5,0.1v1.5
		c-0.2,0-0.3-0.1-0.6-0.1c-1.1,0-2,0.9-2.2,2.1c0,0.2-0.1,0.5-0.1,0.8v4.8h-1.6V78z"/>
	<path class="st1" d="M182,77.6c0-0.9,0-1.7-0.1-2.4h1.4l0.1,1.4h0.1c0.5-0.8,1.3-1.6,2.8-1.6c1.2,0,2.1,0.7,2.5,1.8h0
		c0.3-0.5,0.6-0.9,1-1.2c0.5-0.4,1.1-0.6,2-0.6c1.2,0,2.9,0.8,2.9,3.9v5.3h-1.6v-5.1c0-1.7-0.6-2.7-1.9-2.7c-0.9,0-1.6,0.7-1.9,1.5
		c-0.1,0.2-0.1,0.5-0.1,0.8v5.5h-1.6v-5.3c0-1.4-0.6-2.5-1.9-2.5c-1,0-1.8,0.8-2,1.6c-0.1,0.2-0.1,0.5-0.1,0.8v5.4H182V77.6z"/>
	<path class="st1" d="M199.1,72.7c0,0.6-0.4,1-1,1c-0.6,0-1-0.4-1-1c0-0.6,0.4-1,1-1C198.8,71.7,199.1,72.1,199.1,72.7z M197.3,84.1
		v-8.9h1.6v8.9H197.3z"/>
	<path class="st1" d="M201.4,82.5c0.5,0.3,1.3,0.6,2.1,0.6c1.2,0,1.7-0.6,1.7-1.3c0-0.8-0.5-1.2-1.7-1.6c-1.6-0.6-2.4-1.5-2.4-2.5
		c0-1.4,1.2-2.6,3.1-2.6c0.9,0,1.7,0.3,2.2,0.6l-0.4,1.2c-0.3-0.2-1-0.5-1.8-0.5c-1,0-1.5,0.6-1.5,1.2c0,0.7,0.5,1.1,1.7,1.5
		c1.5,0.6,2.3,1.4,2.3,2.7c0,1.6-1.2,2.7-3.3,2.7c-1,0-1.9-0.2-2.5-0.6L201.4,82.5z"/>
	<path class="st1" d="M208.7,82.5c0.5,0.3,1.3,0.6,2.1,0.6c1.2,0,1.7-0.6,1.7-1.3c0-0.8-0.5-1.2-1.7-1.6c-1.6-0.6-2.4-1.5-2.4-2.5
		c0-1.4,1.2-2.6,3.1-2.6c0.9,0,1.7,0.3,2.2,0.6l-0.4,1.2c-0.3-0.2-1-0.5-1.8-0.5c-1,0-1.5,0.6-1.5,1.2c0,0.7,0.5,1.1,1.7,1.5
		c1.5,0.6,2.3,1.4,2.3,2.7c0,1.6-1.2,2.7-3.3,2.7c-1,0-1.9-0.2-2.5-0.6L208.7,82.5z"/>
	<path class="st1" d="M218,72.7c0,0.6-0.4,1-1,1c-0.6,0-1-0.4-1-1c0-0.6,0.4-1,1-1C217.7,71.7,218,72.1,218,72.7z M216.2,84.1v-8.9
		h1.6v8.9H216.2z"/>
	<path class="st1" d="M228.6,79.6c0,3.3-2.3,4.7-4.4,4.7c-2.4,0-4.3-1.8-4.3-4.6c0-3,2-4.7,4.4-4.7C226.9,75,228.6,76.9,228.6,79.6z
		 M221.5,79.7c0,2,1.1,3.4,2.7,3.4c1.5,0,2.7-1.5,2.7-3.5c0-1.5-0.8-3.4-2.7-3.4C222.4,76.2,221.5,78,221.5,79.7z"/>
	<path class="st1" d="M230.7,77.6c0-0.9,0-1.7-0.1-2.4h1.4l0.1,1.5h0c0.4-0.8,1.5-1.7,2.9-1.7c1.2,0,3.2,0.7,3.2,3.8v5.3h-1.6V79
		c0-1.4-0.5-2.6-2.1-2.6c-1.1,0-1.9,0.8-2.2,1.7c-0.1,0.2-0.1,0.5-0.1,0.8v5.4h-1.6V77.6z"/>
	<path class="st1" d="M246.8,72.6v2.6h2.3v1.2h-2.3v4.8c0,1.1,0.3,1.7,1.2,1.7c0.4,0,0.7-0.1,0.9-0.1l0.1,1.2
		c-0.3,0.1-0.8,0.2-1.4,0.2c-0.8,0-1.4-0.2-1.8-0.7c-0.5-0.5-0.6-1.3-0.6-2.3v-4.9h-1.4v-1.2h1.4v-2.1L246.8,72.6z"/>
	<path class="st1" d="M258.9,79.6c0,3.3-2.3,4.7-4.4,4.7c-2.4,0-4.3-1.8-4.3-4.6c0-3,2-4.7,4.4-4.7C257.1,75,258.9,76.9,258.9,79.6z
		 M251.8,79.7c0,2,1.1,3.4,2.7,3.4c1.5,0,2.7-1.5,2.7-3.5c0-1.5-0.8-3.4-2.7-3.4C252.6,76.2,251.8,78,251.8,79.7z"/>
	<path class="st1" d="M269.8,84.1l-0.1-1.1h-0.1c-0.5,0.7-1.5,1.3-2.7,1.3c-1.8,0-2.7-1.3-2.7-2.6c0-2.2,1.9-3.3,5.4-3.3v-0.2
		c0-0.7-0.2-2.1-2-2.1c-0.8,0-1.7,0.3-2.3,0.7l-0.4-1.1c0.7-0.5,1.8-0.8,2.9-0.8c2.7,0,3.4,1.9,3.4,3.6V82c0,0.8,0,1.5,0.1,2.1
		H269.8z M269.5,79.6c-1.8,0-3.8,0.3-3.8,2c0,1.1,0.7,1.5,1.5,1.5c1.2,0,1.9-0.7,2.2-1.5c0.1-0.2,0.1-0.4,0.1-0.5V79.6z"/>
	<path class="st1" d="M280.1,83.8c-0.4,0.2-1.4,0.5-2.6,0.5c-2.7,0-4.4-1.8-4.4-4.6c0-2.7,1.9-4.7,4.8-4.7c1,0,1.8,0.2,2.2,0.5
		l-0.4,1.3c-0.4-0.2-1-0.4-1.9-0.4c-2,0-3.2,1.5-3.2,3.4c0,2.1,1.3,3.3,3.1,3.3c0.9,0,1.5-0.2,2-0.4L280.1,83.8z"/>
	<path class="st1" d="M288.2,83.8c-0.4,0.2-1.4,0.5-2.6,0.5c-2.7,0-4.4-1.8-4.4-4.6c0-2.7,1.9-4.7,4.8-4.7c1,0,1.8,0.2,2.2,0.5
		l-0.4,1.3c-0.4-0.2-1-0.4-1.9-0.4c-2,0-3.2,1.5-3.2,3.4c0,2.1,1.3,3.3,3.1,3.3c0.9,0,1.5-0.2,2-0.4L288.2,83.8z"/>
	<path class="st1" d="M290.9,80c0,2.2,1.4,3.1,3.1,3.1c1.2,0,1.9-0.2,2.5-0.5l0.3,1.2c-0.6,0.3-1.5,0.6-3,0.6
		c-2.7,0-4.4-1.8-4.4-4.5s1.6-4.8,4.2-4.8c2.9,0,3.7,2.6,3.7,4.2c0,0.3,0,0.6-0.1,0.8H290.9z M295.6,78.8c0-1-0.4-2.6-2.2-2.6
		c-1.6,0-2.4,1.5-2.5,2.6H295.6z"/>
	<path class="st1" d="M299,82.5c0.5,0.3,1.3,0.6,2.1,0.6c1.2,0,1.7-0.6,1.7-1.3c0-0.8-0.5-1.2-1.7-1.6c-1.6-0.6-2.4-1.5-2.4-2.5
		c0-1.4,1.2-2.6,3.1-2.6c0.9,0,1.7,0.3,2.2,0.6l-0.4,1.2c-0.3-0.2-1-0.5-1.8-0.5c-1,0-1.5,0.6-1.5,1.2c0,0.7,0.5,1.1,1.7,1.5
		c1.5,0.6,2.3,1.4,2.3,2.7c0,1.6-1.2,2.7-3.3,2.7c-1,0-1.9-0.2-2.5-0.6L299,82.5z"/>
	<path class="st1" d="M306.3,82.5c0.5,0.3,1.3,0.6,2.1,0.6c1.2,0,1.7-0.6,1.7-1.3c0-0.8-0.5-1.2-1.7-1.6c-1.6-0.6-2.4-1.5-2.4-2.5
		c0-1.4,1.2-2.6,3.1-2.6c0.9,0,1.7,0.3,2.2,0.6l-0.4,1.2c-0.3-0.2-1-0.5-1.8-0.5c-1,0-1.5,0.6-1.5,1.2c0,0.7,0.5,1.1,1.7,1.5
		c1.5,0.6,2.3,1.4,2.3,2.7c0,1.6-1.2,2.7-3.3,2.7c-1,0-1.9-0.2-2.5-0.6L306.3,82.5z"/>
	<path class="st1" d="M319.7,72.6v2.6h2.3v1.2h-2.3v4.8c0,1.1,0.3,1.7,1.2,1.7c0.4,0,0.7-0.1,0.9-0.1l0.1,1.2
		c-0.3,0.1-0.8,0.2-1.4,0.2c-0.8,0-1.4-0.2-1.8-0.7c-0.5-0.5-0.6-1.3-0.6-2.3v-4.9h-1.4v-1.2h1.4v-2.1L319.7,72.6z"/>
	<path class="st1" d="M323.8,71h1.6v5.6h0c0.3-0.5,0.7-0.9,1.2-1.1c0.5-0.3,1.1-0.5,1.7-0.5c1.2,0,3.1,0.7,3.1,3.8v5.3h-1.6V79
		c0-1.4-0.5-2.7-2.1-2.7c-1.1,0-1.9,0.7-2.2,1.6c-0.1,0.2-0.1,0.5-0.1,0.8v5.4h-1.6V71z"/>
	<path class="st1" d="M335,80c0,2.2,1.4,3.1,3.1,3.1c1.2,0,1.9-0.2,2.5-0.5l0.3,1.2c-0.6,0.3-1.5,0.6-3,0.6c-2.7,0-4.4-1.8-4.4-4.5
		s1.6-4.8,4.2-4.8c2.9,0,3.7,2.6,3.7,4.2c0,0.3,0,0.6-0.1,0.8H335z M339.7,78.8c0-1-0.4-2.6-2.2-2.6c-1.6,0-2.4,1.5-2.5,2.6H339.7z"
		/>
	<path class="st1" d="M354.9,71v10.8c0,0.8,0,1.7,0.1,2.3h-1.5l-0.1-1.5h0c-0.5,1-1.6,1.8-3,1.8c-2.2,0-3.8-1.8-3.8-4.5
		c0-3,1.8-4.8,4-4.8c1.4,0,2.3,0.6,2.7,1.4h0V71H354.9z M353.3,78.8c0-0.2,0-0.5-0.1-0.7c-0.2-1-1.1-1.9-2.3-1.9
		c-1.7,0-2.7,1.5-2.7,3.4c0,1.8,0.9,3.3,2.6,3.3c1.1,0,2.1-0.7,2.4-1.9c0.1-0.2,0.1-0.4,0.1-0.7V78.8z"/>
	<path class="st1" d="M358.5,80c0,2.2,1.4,3.1,3.1,3.1c1.2,0,1.9-0.2,2.5-0.5l0.3,1.2c-0.6,0.3-1.5,0.6-3,0.6
		c-2.7,0-4.4-1.8-4.4-4.5s1.6-4.8,4.2-4.8c2.9,0,3.7,2.6,3.7,4.2c0,0.3,0,0.6-0.1,0.8H358.5z M363.2,78.8c0-1-0.4-2.6-2.2-2.6
		c-1.6,0-2.4,1.5-2.5,2.6H363.2z"/>
	<path class="st1" d="M368.8,72.6v2.6h2.3v1.2h-2.3v4.8c0,1.1,0.3,1.7,1.2,1.7c0.4,0,0.7-0.1,0.9-0.1l0.1,1.2
		c-0.3,0.1-0.8,0.2-1.4,0.2c-0.8,0-1.4-0.2-1.8-0.7c-0.5-0.5-0.6-1.3-0.6-2.3v-4.9h-1.4v-1.2h1.4v-2.1L368.8,72.6z"/>
	<path class="st1" d="M377.9,84.1l-0.1-1.1h-0.1c-0.5,0.7-1.5,1.3-2.7,1.3c-1.8,0-2.7-1.3-2.7-2.6c0-2.2,1.9-3.3,5.4-3.3v-0.2
		c0-0.7-0.2-2.1-2-2.1c-0.8,0-1.7,0.3-2.3,0.7l-0.4-1.1c0.7-0.5,1.8-0.8,2.9-0.8c2.7,0,3.4,1.9,3.4,3.6V82c0,0.8,0,1.5,0.1,2.1
		H377.9z M377.6,79.6c-1.8,0-3.8,0.3-3.8,2c0,1.1,0.7,1.5,1.5,1.5c1.2,0,1.9-0.7,2.2-1.5c0.1-0.2,0.1-0.4,0.1-0.5V79.6z"/>
	<path class="st1" d="M383.6,72.7c0,0.6-0.4,1-1,1c-0.6,0-1-0.4-1-1c0-0.6,0.4-1,1-1C383.2,71.7,383.6,72.1,383.6,72.7z M381.8,84.1
		v-8.9h1.6v8.9H381.8z"/>
	<path class="st1" d="M386.1,71h1.6v13.1h-1.6V71z"/>
	<path class="st1" d="M390.2,82.5c0.5,0.3,1.3,0.6,2.1,0.6c1.2,0,1.7-0.6,1.7-1.3c0-0.8-0.5-1.2-1.7-1.6c-1.6-0.6-2.4-1.5-2.4-2.5
		c0-1.4,1.2-2.6,3.1-2.6c0.9,0,1.7,0.3,2.2,0.6l-0.4,1.2c-0.3-0.2-1-0.5-1.8-0.5c-1,0-1.5,0.6-1.5,1.2c0,0.7,0.5,1.1,1.7,1.5
		c1.5,0.6,2.3,1.4,2.3,2.7c0,1.6-1.2,2.7-3.3,2.7c-1,0-1.9-0.2-2.5-0.6L390.2,82.5z"/>
	<path class="st1" d="M409.7,79.6c0,3.3-2.3,4.7-4.4,4.7c-2.4,0-4.3-1.8-4.3-4.6c0-3,2-4.7,4.4-4.7C408,75,409.7,76.9,409.7,79.6z
		 M402.7,79.7c0,2,1.1,3.4,2.7,3.4c1.5,0,2.7-1.5,2.7-3.5c0-1.5-0.8-3.4-2.7-3.4C403.5,76.2,402.7,78,402.7,79.7z"/>
	<path class="st1" d="M411.8,77.6c0-0.9,0-1.7-0.1-2.4h1.4l0.1,1.5h0c0.4-0.8,1.5-1.7,2.9-1.7c1.2,0,3.2,0.7,3.2,3.8v5.3h-1.6V79
		c0-1.4-0.5-2.6-2.1-2.6c-1.1,0-1.9,0.8-2.2,1.7c-0.1,0.2-0.1,0.5-0.1,0.8v5.4h-1.6V77.6z"/>
	<path class="st1" d="M427.9,72.6v2.6h2.3v1.2h-2.3v4.8c0,1.1,0.3,1.7,1.2,1.7c0.4,0,0.7-0.1,0.9-0.1l0.1,1.2
		c-0.3,0.1-0.8,0.2-1.4,0.2c-0.8,0-1.4-0.2-1.8-0.7c-0.5-0.5-0.6-1.3-0.6-2.3v-4.9h-1.4v-1.2h1.4v-2.1L427.9,72.6z"/>
	<path class="st1" d="M432,71h1.6v5.6h0c0.3-0.5,0.7-0.9,1.2-1.1c0.5-0.3,1.1-0.5,1.7-0.5c1.2,0,3.1,0.7,3.1,3.8v5.3H438V79
		c0-1.4-0.5-2.7-2.1-2.7c-1.1,0-1.9,0.7-2.2,1.6c-0.1,0.2-0.1,0.5-0.1,0.8v5.4H432V71z"/>
	<path class="st1" d="M444,72.7c0,0.6-0.4,1-1,1c-0.6,0-1-0.4-1-1c0-0.6,0.4-1,1-1C443.7,71.7,444,72.1,444,72.7z M442.2,84.1v-8.9
		h1.6v8.9H442.2z"/>
	<path class="st1" d="M446.3,82.5c0.5,0.3,1.3,0.6,2.1,0.6c1.2,0,1.7-0.6,1.7-1.3c0-0.8-0.5-1.2-1.7-1.6c-1.6-0.6-2.4-1.5-2.4-2.5
		c0-1.4,1.2-2.6,3.1-2.6c0.9,0,1.7,0.3,2.2,0.6l-0.4,1.2c-0.3-0.2-1-0.5-1.8-0.5c-1,0-1.5,0.6-1.5,1.2c0,0.7,0.5,1.1,1.7,1.5
		c1.5,0.6,2.3,1.4,2.3,2.7c0,1.6-1.2,2.7-3.3,2.7c-1,0-1.9-0.2-2.5-0.6L446.3,82.5z"/>
	<path class="st1" d="M457.8,78.1c0-1.1,0-2.1-0.1-2.9h1.5l0.1,1.5h0c0.7-1.1,1.7-1.7,3.2-1.7c2.2,0,3.8,1.8,3.8,4.5
		c0,3.2-2,4.8-4.1,4.8c-1.2,0-2.2-0.5-2.7-1.4h0v4.8h-1.6V78.1z M459.4,80.5c0,0.2,0,0.5,0.1,0.7c0.3,1.1,1.3,1.9,2.4,1.9
		c1.7,0,2.7-1.4,2.7-3.4c0-1.8-0.9-3.3-2.7-3.3c-1.1,0-2.1,0.8-2.5,2c-0.1,0.2-0.1,0.4-0.1,0.7V80.5z"/>
	<path class="st1" d="M473.2,84.1L473,83H473c-0.5,0.7-1.5,1.3-2.7,1.3c-1.8,0-2.7-1.3-2.7-2.6c0-2.2,1.9-3.3,5.4-3.3v-0.2
		c0-0.7-0.2-2.1-2-2.1c-0.8,0-1.7,0.3-2.3,0.7l-0.4-1.1c0.7-0.5,1.8-0.8,2.9-0.8c2.7,0,3.4,1.9,3.4,3.6V82c0,0.8,0,1.5,0.1,2.1
		H473.2z M472.9,79.6c-1.8,0-3.8,0.3-3.8,2c0,1.1,0.7,1.5,1.5,1.5c1.2,0,1.9-0.7,2.2-1.5c0.1-0.2,0.1-0.4,0.1-0.5V79.6z"/>
	<path class="st1" d="M484.8,75.2c0,0.6-0.1,1.4-0.1,2.5v5.2c0,2-0.4,3.3-1.3,4.1c-0.9,0.8-2.1,1.1-3.2,1.1c-1.1,0-2.2-0.3-3-0.7
		l0.4-1.2c0.6,0.4,1.5,0.7,2.6,0.7c1.7,0,2.9-0.9,2.9-3.1v-1h0c-0.5,0.8-1.5,1.5-2.8,1.5c-2.2,0-3.8-1.9-3.8-4.3c0-3,2-4.7,4-4.7
		c1.5,0,2.4,0.8,2.8,1.5h0l0.1-1.3H484.8z M483.1,78.7c0-0.3,0-0.5-0.1-0.7c-0.3-0.9-1.1-1.7-2.3-1.7c-1.5,0-2.7,1.3-2.7,3.4
		c0,1.8,0.9,3.2,2.6,3.2c1,0,1.9-0.6,2.2-1.7c0.1-0.3,0.1-0.6,0.1-0.9V78.7z"/>
	<path class="st1" d="M488.3,80c0,2.2,1.4,3.1,3.1,3.1c1.2,0,1.9-0.2,2.5-0.5l0.3,1.2c-0.6,0.3-1.5,0.6-3,0.6
		c-2.7,0-4.4-1.8-4.4-4.5s1.6-4.8,4.2-4.8c2.9,0,3.7,2.6,3.7,4.2c0,0.3,0,0.6-0.1,0.8H488.3z M493.1,78.8c0-1-0.4-2.6-2.2-2.6
		c-1.6,0-2.4,1.5-2.5,2.6H493.1z"/>
</g>
</svg>
