<?xml version="1.0" encoding="utf-8"?>
<!-- Generator: Adobe Illustrator 21.0.0, SVG Export Plug-In . SVG Version: 6.00 Build 0)  -->
<svg version="1.1" id="Layer_1" xmlns="http://www.w3.org/2000/svg" xmlns:xlink="http://www.w3.org/1999/xlink" x="0px" y="0px"
	 width="155.1px" height="87.5px" viewBox="0 0 155.1 87.5" style="enable-background:new 0 0 155.1 87.5;" xml:space="preserve">
<style type="text/css">
	.st0{fill:#03A9F4;}
	.st1{fill:#878787;}
</style>
<g>
	<g>
		<g>
			<path class="st0" d="M106,28.5c0,15.8-12.8,28.5-28.5,28.5c-15.8,0-28.5-12.8-28.5-28.5C49.1,12.7,61.9,0,77.6,0
				C93.3,0,106,12.8,106,28.5z M77.5,2.5c-14.4,0-26,11.6-26,26c0,14.3,11.7,26,26,26c14.4,0,26-11.6,26-26
				C103.6,14.1,91.9,2.5,77.5,2.5z"/>
		</g>
		<g>
			<path class="st0" d="M74.8,42.8c-0.4-2.1,0.8-3.7,2.5-3.8c1.7-0.1,3.1,1.4,3.1,3.2c-0.1,1.8-1.4,3.1-3.4,2.8
				C75.9,44.8,75,43.9,74.8,42.8z M75.9,34.9l-0.6-21c0-1.1,0.8-1.9,1.9-1.9h0.6c1.2,0,2.1,1,2.1,2.1l-0.6,20.8
				c0,0.1-0.1,0.2-0.2,0.2h-3C76,35.1,75.9,35,75.9,34.9z"/>
		</g>
	</g>
	<g>
		<path class="st1" d="M1.1,82.8V70h1.8L7,76.5C8,78,8.7,79.3,9.3,80.6l0,0c-0.2-1.7-0.2-3.3-0.2-5.3V70h1.6v12.8H9.1L5,76.3
			c-0.9-1.4-1.7-2.9-2.4-4.3l-0.1,0c0.1,1.6,0.1,3.2,0.1,5.3v5.5H1.1z"/>
		<path class="st1" d="M21.9,78.1c0,3.4-2.4,4.9-4.6,4.9c-2.5,0-4.4-1.8-4.4-4.7c0-3.1,2-4.9,4.6-4.9C20.1,73.4,21.9,75.3,21.9,78.1
			z M14.6,78.2c0,2,1.2,3.5,2.8,3.5c1.6,0,2.8-1.5,2.8-3.6c0-1.6-0.8-3.5-2.8-3.5C15.4,74.6,14.6,76.5,14.6,78.2z"/>
		<path class="st1" d="M34.3,81.4L34.3,81.4c-0.5,0.9-1.6,1.6-3,1.6c-2.1,0-3.9-1.9-3.9-4.7c0-3.4,2.2-5,4.2-5
			c1.4,0,2.4,0.7,2.8,1.6h0l0.1-1.4H36c0,0.8-0.1,1.6-0.1,2.5v10.4h-1.7V81.4z M34.3,77.3c0-0.2,0-0.5-0.1-0.7
			c-0.2-1-1.1-1.9-2.4-1.9c-1.7,0-2.8,1.5-2.8,3.5c0,1.8,0.9,3.4,2.7,3.4c1.1,0,2-0.7,2.4-1.8c0.1-0.2,0.1-0.5,0.1-0.8V77.3z"/>
		<path class="st1" d="M46.4,80.3c0,0.9,0,1.8,0.1,2.5H45l-0.1-1.5h0c-0.4,0.7-1.4,1.7-3,1.7c-1.4,0-3.2-0.8-3.2-4v-5.4h1.7v5.1
			c0,1.7,0.5,2.9,2.1,2.9c1.1,0,1.9-0.8,2.2-1.5c0.1-0.2,0.2-0.6,0.2-0.9v-5.6h1.7V80.3z"/>
		<path class="st1" d="M50.1,78.5c0,2.3,1.5,3.2,3.2,3.2c1.2,0,1.9-0.2,2.5-0.5l0.3,1.2C55.5,82.7,54.5,83,53,83
			c-2.8,0-4.5-1.9-4.5-4.6s1.6-5,4.3-5c3,0,3.8,2.6,3.8,4.3c0,0.3,0,0.6-0.1,0.8H50.1z M55,77.3c0-1.1-0.4-2.7-2.3-2.7
			c-1.7,0-2.4,1.6-2.6,2.7H55z"/>
		<path class="st1" d="M58.4,81.1c0.5,0.3,1.4,0.7,2.2,0.7c1.2,0,1.8-0.6,1.8-1.4c0-0.8-0.5-1.2-1.7-1.7c-1.7-0.6-2.4-1.5-2.4-2.6
			c0-1.5,1.2-2.7,3.2-2.7c0.9,0,1.7,0.3,2.3,0.6l-0.4,1.2c-0.4-0.2-1-0.5-1.9-0.5c-1,0-1.5,0.6-1.5,1.3c0,0.8,0.6,1.1,1.7,1.6
			c1.6,0.6,2.4,1.4,2.4,2.8c0,1.6-1.3,2.8-3.4,2.8c-1,0-1.9-0.2-2.6-0.6L58.4,81.1z"/>
		<path class="st1" d="M68.2,71v2.6h2.4v1.3h-2.4v5c0,1.1,0.3,1.8,1.3,1.8c0.4,0,0.8-0.1,1-0.1l0.1,1.3C70.2,82.9,69.6,83,69,83
			c-0.8,0-1.4-0.2-1.8-0.7c-0.5-0.5-0.6-1.3-0.6-2.4v-5h-1.4v-1.3h1.4v-2.2L68.2,71z"/>
		<path class="st1" d="M74.3,71c0,0.6-0.4,1-1.1,1c-0.6,0-1-0.5-1-1c0-0.6,0.4-1,1-1C73.9,70,74.3,70.4,74.3,71z M72.5,82.8v-9.2
			h1.7v9.2H72.5z"/>
		<path class="st1" d="M85.2,78.1c0,3.4-2.4,4.9-4.6,4.9c-2.5,0-4.4-1.8-4.4-4.7c0-3.1,2-4.9,4.6-4.9C83.4,73.4,85.2,75.3,85.2,78.1
			z M77.9,78.2c0,2,1.2,3.5,2.8,3.5c1.6,0,2.8-1.5,2.8-3.6c0-1.6-0.8-3.5-2.8-3.5S77.9,76.5,77.9,78.2z"/>
		<path class="st1" d="M87.3,76.1c0-0.9,0-1.7-0.1-2.5h1.5l0.1,1.5h0c0.5-0.9,1.5-1.7,3-1.7c1.3,0,3.2,0.8,3.2,3.9v5.5h-1.7v-5.3
			c0-1.5-0.6-2.7-2.1-2.7c-1.1,0-2,0.8-2.2,1.7C89,76.7,89,77,89,77.3v5.5h-1.7V76.1z"/>
		<path class="st1" d="M97.6,81.1c0.5,0.3,1.4,0.7,2.2,0.7c1.2,0,1.8-0.6,1.8-1.4c0-0.8-0.5-1.2-1.7-1.7c-1.7-0.6-2.4-1.5-2.4-2.6
			c0-1.5,1.2-2.7,3.2-2.7c0.9,0,1.7,0.3,2.3,0.6l-0.4,1.2c-0.4-0.2-1-0.5-1.9-0.5c-1,0-1.5,0.6-1.5,1.3c0,0.8,0.6,1.1,1.7,1.6
			c1.6,0.6,2.4,1.4,2.4,2.8c0,1.6-1.3,2.8-3.4,2.8c-1,0-1.9-0.2-2.6-0.6L97.6,81.1z"/>
		<path class="st1" d="M109.6,82.8v-7.9h-1.3v-1.3h1.3v-0.4c0-1.3,0.3-2.5,1.1-3.2c0.6-0.6,1.5-0.9,2.2-0.9c0.6,0,1.1,0.1,1.4,0.3
			l-0.2,1.3c-0.2-0.1-0.6-0.2-1.1-0.2c-1.4,0-1.8,1.3-1.8,2.7v0.5h2.2v1.3h-2.2v7.9H109.6z"/>
		<path class="st1" d="M123,78.1c0,3.4-2.4,4.9-4.6,4.9c-2.5,0-4.4-1.8-4.4-4.7c0-3.1,2-4.9,4.6-4.9C121.2,73.4,123,75.3,123,78.1z
			 M115.7,78.2c0,2,1.2,3.5,2.8,3.5c1.6,0,2.8-1.5,2.8-3.6c0-1.6-0.8-3.5-2.8-3.5C116.6,74.6,115.7,76.5,115.7,78.2z"/>
		<path class="st1" d="M132.8,80.3c0,0.9,0,1.8,0.1,2.5h-1.5l-0.1-1.5h0c-0.4,0.7-1.4,1.7-3,1.7c-1.4,0-3.2-0.8-3.2-4v-5.4h1.7v5.1
			c0,1.7,0.5,2.9,2.1,2.9c1.1,0,1.9-0.8,2.2-1.5c0.1-0.2,0.2-0.6,0.2-0.9v-5.6h1.7V80.3z"/>
		<path class="st1" d="M135.6,76.1c0-0.9,0-1.7-0.1-2.5h1.5l0.1,1.5h0c0.5-0.9,1.5-1.7,3-1.7c1.3,0,3.2,0.8,3.2,3.9v5.5h-1.7v-5.3
			c0-1.5-0.6-2.7-2.1-2.7c-1.1,0-2,0.8-2.2,1.7c-0.1,0.2-0.1,0.5-0.1,0.8v5.5h-1.7V76.1z"/>
		<path class="st1" d="M154,69.3v11.1c0,0.8,0,1.7,0.1,2.4h-1.5l-0.1-1.6h0c-0.5,1-1.6,1.8-3.1,1.8c-2.2,0-3.9-1.9-3.9-4.7
			c0-3.1,1.9-4.9,4.1-4.9c1.4,0,2.4,0.7,2.8,1.4h0v-5.5H154z M152.4,77.3c0-0.2,0-0.5-0.1-0.7c-0.2-1.1-1.2-1.9-2.4-1.9
			c-1.7,0-2.8,1.5-2.8,3.5c0,1.9,0.9,3.4,2.7,3.4c1.1,0,2.1-0.7,2.4-2c0.1-0.2,0.1-0.5,0.1-0.7V77.3z"/>
	</g>
</g>
</svg>
