<?xml version="1.0" encoding="utf-8"?>
<!-- Generator: Adobe Illustrator 21.0.0, SVG Export Plug-In . SVG Version: 6.00 Build 0)  -->
<svg version="1.1" id="Layer_1" xmlns="http://www.w3.org/2000/svg" xmlns:xlink="http://www.w3.org/1999/xlink" x="0px" y="0px"
	 width="49.999px" height="49.999px" viewBox="0 0 49.999 49.999" enable-background="new 0 0 49.999 49.999" xml:space="preserve">
<g opacity="0.15">
	<g>
		<path d="M24.999,0C11.193,0,0,11.193,0,24.999c0,13.806,11.193,25,24.999,25s25-11.194,25-25C49.999,11.193,38.806,0,24.999,0z
			 M24.999,9.858c4.172,0,7.554,3.382,7.554,7.554c0,4.173-3.382,7.555-7.554,7.555s-7.554-3.382-7.554-7.555
			C17.445,13.24,20.827,9.858,24.999,9.858z M28.115,35.426L28.115,35.426l0,2.735v0.338h-3.044h-0.144h-10.95
			c0-7.446,4.05-10.095,6.707-12.474c1.287,0.692,2.755,1.088,4.315,1.1c1.56-0.012,3.028-0.408,4.314-1.1
			c1.19,1.065,2.659,2.187,3.918,3.768H32.02v1.729v2.175h-2.176h-1.729V35.426z M36.483,38.161v3.904h-2.735v-3.904h-3.905v-2.735
			h3.905v-3.904h2.735v3.904h3.904v2.735H36.483z"/>
	</g>
</g>
</svg>
