<?xml version="1.0" encoding="utf-8"?>
<!-- Generator: Adobe Illustrator 21.0.0, SVG Export Plug-In . SVG Version: 6.00 Build 0)  -->
<svg version="1.1" id="Layer_1" xmlns="http://www.w3.org/2000/svg" xmlns:xlink="http://www.w3.org/1999/xlink" x="0px" y="0px"
	 viewBox="0 0 7.29 8.132" enable-background="new 0 0 7.29 8.132" xml:space="preserve">
<g>
	<g>
		<g>
			<g>
				<g>
					<path fill="#6A6A77" d="M3.361,3.965L0.116,7.209C0.041,7.284,0,7.384,0,7.491c0,0.107,0.041,0.207,0.116,0.282l0.239,0.239
						c0.156,0.155,0.409,0.155,0.564,0l2.724-2.724l2.727,2.727C6.446,8.09,6.546,8.132,6.653,8.132
						c0.107,0,0.207-0.041,0.282-0.116l0.239-0.239C7.249,7.701,7.29,7.601,7.29,7.494c0-0.107-0.041-0.207-0.116-0.282L3.927,3.965
						C3.851,3.89,3.751,3.848,3.644,3.849C3.536,3.848,3.436,3.89,3.361,3.965z"/>
				</g>
			</g>
		</g>
	</g>
	<g>
		<g>
			<g>
				<g>
					<path fill="#6A6A77" d="M3.368,0.113L0.202,3.279C0.129,3.352,0.088,3.45,0.088,3.554s0.04,0.202,0.114,0.275l0.233,0.233
						c0.152,0.152,0.399,0.152,0.55,0l2.658-2.658l2.661,2.661C6.378,4.139,6.476,4.179,6.58,4.179c0.104,0,0.202-0.04,0.275-0.114
						l0.233-0.233c0.073-0.073,0.114-0.171,0.114-0.275s-0.04-0.202-0.114-0.275L3.92,0.113C3.846,0.04,3.748,0,3.644,0
						C3.539,0,3.441,0.04,3.368,0.113z"/>
				</g>
			</g>
		</g>
	</g>
</g>
</svg>
