<?xml version="1.0" encoding="utf-8"?>
<!-- Generator: Adobe Illustrator 21.0.0, SVG Export Plug-In . SVG Version: 6.00 Build 0)  -->
<svg version="1.1" id="Layer_1" xmlns="http://www.w3.org/2000/svg" xmlns:xlink="http://www.w3.org/1999/xlink" x="0px" y="0px"
	 viewBox="0 0 20.264 20.253" enable-background="new 0 0 20.264 20.253" xml:space="preserve">
<g>
	<g>
		<g>
			<path fill="#AAB2BD" d="M19.455,6.182c-1.068-2.491-2.884-4.302-5.395-5.373C12.804,0.273,11.489,0,10.115,0
				C8.742,0,7.436,0.271,6.182,0.809C3.692,1.877,1.868,3.687,0.798,6.182C0.261,7.432,0,8.742,0,10.115
				c0,1.374,0.261,2.694,0.798,3.944c1.07,2.495,2.894,4.316,5.385,5.385c1.254,0.538,2.559,0.809,3.933,0.809
				s2.689-0.273,3.944-0.809c2.512-1.071,4.327-2.894,5.396-5.385c0.538-1.254,0.809-2.57,0.809-3.944
				C20.264,8.742,19.993,7.436,19.455,6.182z M17.838,14.592c-0.795,1.364-1.885,2.446-3.257,3.246
				c-1.364,0.795-2.859,1.196-4.465,1.196c-1.208,0-2.36-0.233-3.457-0.709c-1.097-0.476-2.044-1.102-2.836-1.894
				C3.03,15.638,2.4,14.682,1.928,13.583c-0.47-1.095-0.698-2.26-0.698-3.468c0-1.607,0.395-3.094,1.186-4.454
				c0.794-1.365,1.884-2.448,3.246-3.246c1.362-0.798,2.847-1.197,4.454-1.197c1.607,0,3.101,0.401,4.465,1.197
				c1.372,0.8,2.46,1.883,3.257,3.246c0.798,1.363,1.196,2.847,1.196,4.454C19.034,11.722,18.638,13.219,17.838,14.592z"/>
			<path fill="#AAB2BD" d="M10.761,10.032V4.265c0-0.345-0.301-0.624-0.646-0.624c-0.323,0-0.612,0.278-0.612,0.624v5.857
				c0,0.011,0.022,0.056,0.022,0.089c-0.022,0.2,0.034,0.367,0.167,0.501l3.329,3.329c0.223,0.223,0.635,0.223,0.857,0
				c0.256-0.256,0.239-0.628,0-0.868L10.761,10.032z"/>
		</g>
	</g>
</g>
</svg>
