<?xml version="1.0" encoding="utf-8"?>
<!-- Generator: Adobe Illustrator 21.0.0, SVG Export Plug-In . SVG Version: 6.00 Build 0)  -->
<svg version="1.1" id="Layer_1" xmlns="http://www.w3.org/2000/svg" xmlns:xlink="http://www.w3.org/1999/xlink" x="0px" y="0px"
	 width="26.317px" height="26.317px" viewBox="0 0 26.317 26.317" enable-background="new 0 0 26.317 26.317" xml:space="preserve">
<g opacity="0.6">
	<g>
		<g id="_x33_56._Play_1_">
			<g>
				<path fill="#FFFFFF" d="M24.552,6.58C20.919,0.288,12.872-1.868,6.58,1.765C0.288,5.398-1.868,13.444,1.765,19.736
					c3.632,6.293,11.679,8.449,17.971,4.816C26.029,20.918,28.186,12.872,24.552,6.58z M18.421,22.272
					C13.388,25.179,6.95,23.454,4.044,18.42C1.137,13.387,2.862,6.949,7.896,4.044c5.034-2.907,11.471-1.182,14.377,3.852
					C25.18,12.93,23.454,19.366,18.421,22.272z M17.902,12.624l-6.889-4.018c-0.628-0.367-1.134-0.073-1.131,0.653l0.035,7.975
					c0.003,0.726,0.516,1.022,1.145,0.658l6.836-3.947C18.528,13.581,18.53,12.99,17.902,12.624z"/>
			</g>
		</g>
	</g>
</g>
</svg>
