<?xml version="1.0" encoding="utf-8"?>
<!-- Generator: Adobe Illustrator 21.0.0, SVG Export Plug-In . SVG Version: 6.00 Build 0)  -->
<svg version="1.1" id="Layer_1" xmlns="http://www.w3.org/2000/svg" xmlns:xlink="http://www.w3.org/1999/xlink" x="0px" y="0px"
	 width="164.9px" height="55px" viewBox="0 0 164.9 55" style="enable-background:new 0 0 164.9 55;" xml:space="preserve">
<style type="text/css">
	.st0{enable-background:new    ;}
	.st1{fill:#FFFFFF;}
	.st2{opacity:0.84;}
	.st3{opacity:0.67;fill:url(#SVGID_1_);enable-background:new    ;}
	.st4{opacity:0.67;fill:url(#SVGID_2_);enable-background:new    ;}
	.st5{fill:#EE463D;}
	.st6{fill:#4E93AF;}
	.st7{fill:#2C2420;}
</style>
<title>Asset 59</title>
<g>
	<g id="Layer_2">
		<g id="Home_Page">
			<g class="st0">
				<path class="st1" d="M84.4,26.3h-4.7v13.2h-2.9V26.3h-4.7v-2.4h12.3V26.3z"/>
				<path class="st1" d="M88.3,28.3c0.8,0,1.6,0.1,2.2,0.4c0.7,0.3,1.2,0.6,1.7,1.1c0.5,0.5,0.8,1.1,1.1,1.8
					c0.3,0.7,0.4,1.5,0.4,2.4c0,0.9-0.1,1.7-0.4,2.4s-0.6,1.3-1.1,1.8c-0.5,0.5-1.1,0.9-1.7,1.1c-0.7,0.3-1.4,0.4-2.2,0.4
					c-0.8,0-1.6-0.1-2.3-0.4c-0.7-0.3-1.3-0.6-1.7-1.1c-0.5-0.5-0.8-1.1-1.1-1.8s-0.4-1.5-0.4-2.4c0-0.9,0.1-1.7,0.4-2.4
					c0.3-0.7,0.6-1.3,1.1-1.8c0.5-0.5,1.1-0.9,1.7-1.1C86.7,28.4,87.5,28.3,88.3,28.3z M88.3,37.7c0.9,0,1.6-0.3,2-0.9
					S91,35.2,91,34c0-1.2-0.2-2.1-0.7-2.7c-0.4-0.6-1.1-0.9-2-0.9c-0.9,0-1.6,0.3-2.1,0.9c-0.4,0.6-0.7,1.5-0.7,2.7s0.2,2.1,0.7,2.7
					C86.7,37.3,87.4,37.7,88.3,37.7z"/>
				<path class="st1" d="M98.5,23.5v9.2H99c0.2,0,0.3,0,0.4-0.1s0.2-0.1,0.3-0.3l2.8-3.4c0.1-0.2,0.2-0.3,0.4-0.3
					c0.1-0.1,0.3-0.1,0.5-0.1h2.4l-3.4,4.1c-0.2,0.3-0.5,0.6-0.8,0.7c0.2,0.1,0.3,0.2,0.4,0.4c0.1,0.1,0.2,0.3,0.3,0.5l3.7,5.4h-2.4
					c-0.2,0-0.4,0-0.5-0.1c-0.2-0.1-0.3-0.2-0.4-0.4l-2.8-4.2c-0.1-0.2-0.2-0.3-0.3-0.3c-0.1-0.1-0.3-0.1-0.5-0.1h-0.6v5.1h-2.7v-16
					H98.5z"/>
				<path class="st1" d="M113.1,23.9c1,0,1.9,0.1,2.6,0.3c0.7,0.2,1.3,0.5,1.8,0.8c0.5,0.4,0.8,0.8,1,1.3s0.3,1.1,0.3,1.7
					c0,0.4-0.1,0.7-0.2,1.1c-0.1,0.3-0.3,0.6-0.5,0.9c-0.2,0.3-0.5,0.6-0.9,0.8c-0.3,0.2-0.8,0.4-1.2,0.6c2.1,0.5,3.2,1.6,3.2,3.5
					c0,0.7-0.1,1.3-0.4,1.8c-0.3,0.6-0.6,1-1.1,1.5s-1.1,0.7-1.8,1c-0.7,0.2-1.5,0.3-2.4,0.3h-5.9V23.9H113.1z M110.7,26.2v4.5h2.3
					c1,0,1.7-0.2,2.3-0.5c0.5-0.4,0.8-0.9,0.8-1.7c0-0.8-0.2-1.4-0.7-1.7c-0.5-0.3-1.2-0.5-2.2-0.5H110.7z M113.6,37.3
					c0.5,0,1-0.1,1.4-0.2c0.4-0.1,0.7-0.3,0.9-0.5c0.2-0.2,0.4-0.5,0.5-0.8c0.1-0.3,0.1-0.6,0.1-0.9c0-0.3-0.1-0.6-0.2-0.9
					c-0.1-0.3-0.3-0.5-0.5-0.7c-0.2-0.2-0.5-0.3-0.9-0.4c-0.4-0.1-0.8-0.2-1.3-0.2h-2.9v4.6H113.6z"/>
				<path class="st1" d="M124.5,25.2c0,0.2,0,0.4-0.1,0.6c-0.1,0.2-0.2,0.4-0.4,0.5c-0.2,0.2-0.3,0.3-0.5,0.4
					c-0.2,0.1-0.4,0.1-0.7,0.1c-0.2,0-0.4,0-0.7-0.1c-0.2-0.1-0.4-0.2-0.5-0.4s-0.3-0.3-0.4-0.5c-0.1-0.2-0.1-0.4-0.1-0.6
					c0-0.2,0-0.5,0.1-0.7c0.1-0.2,0.2-0.4,0.4-0.5c0.2-0.2,0.3-0.3,0.5-0.4s0.4-0.1,0.7-0.1c0.2,0,0.5,0,0.7,0.1s0.4,0.2,0.5,0.4
					c0.2,0.2,0.3,0.3,0.4,0.5S124.5,25,124.5,25.2z M124.1,28.5v11.1h-2.7V28.5H124.1z"/>
				<path class="st1" d="M129.4,30.4c0.3-0.7,0.8-1.2,1.2-1.6s1-0.6,1.7-0.6c0.5,0,0.9,0.1,1.2,0.3l-0.2,2c0,0.1-0.1,0.2-0.2,0.3
					c-0.1,0.1-0.2,0.1-0.3,0.1c-0.1,0-0.3,0-0.5-0.1c-0.2,0-0.4-0.1-0.6-0.1c-0.3,0-0.6,0-0.8,0.1s-0.4,0.2-0.6,0.4
					c-0.2,0.2-0.3,0.4-0.5,0.6s-0.3,0.5-0.4,0.8v6.8h-2.7V28.5h1.6c0.3,0,0.5,0,0.6,0.1c0.1,0.1,0.2,0.3,0.2,0.5L129.4,30.4z"/>
				<path class="st1" d="M144.2,23.5v16h-1.6c-0.4,0-0.6-0.2-0.7-0.5l-0.2-1.1c-0.4,0.5-1,0.9-1.5,1.2c-0.6,0.3-1.3,0.5-2,0.5
					c-0.6,0-1.2-0.1-1.7-0.4c-0.5-0.3-0.9-0.6-1.3-1.1c-0.4-0.5-0.6-1.1-0.8-1.8c-0.2-0.7-0.3-1.5-0.3-2.4c0-0.8,0.1-1.6,0.3-2.3
					s0.5-1.3,1-1.8c0.4-0.5,0.9-0.9,1.5-1.2c0.6-0.3,1.2-0.4,2-0.4c0.6,0,1.1,0.1,1.6,0.3c0.4,0.2,0.8,0.5,1.2,0.8v-5.8H144.2z
					 M141.6,31.3c-0.3-0.4-0.6-0.6-1-0.8s-0.7-0.2-1.2-0.2c-0.4,0-0.8,0.1-1.1,0.2s-0.6,0.4-0.8,0.7s-0.4,0.7-0.5,1.2
					c-0.1,0.5-0.2,1-0.2,1.7c0,0.6,0.1,1.2,0.2,1.6c0.1,0.5,0.3,0.8,0.4,1.1s0.4,0.5,0.7,0.6c0.3,0.1,0.6,0.2,0.9,0.2
					c0.6,0,1-0.1,1.4-0.3c0.4-0.2,0.8-0.6,1.1-1V31.3z"/>
			</g>
			<g class="st0">
				<path class="st1" d="M60.8,47.4c-0.1,0.3-0.2,0.5-0.3,0.7s-0.3,0.4-0.4,0.6c-0.2,0.2-0.4,0.3-0.6,0.3c-0.2,0.1-0.4,0.1-0.7,0.1
					c-0.2,0-0.5,0-0.7-0.1c0-0.1,0-0.1,0.1-0.2s0-0.1,0.1-0.2c0,0,0-0.1,0.1-0.1c0,0,0.1,0,0.1,0c0,0,0.1,0,0.2,0c0.1,0,0.2,0,0.3,0
					c0.2,0,0.3,0,0.4-0.1c0.1,0,0.2-0.1,0.4-0.2c0.1-0.1,0.2-0.2,0.3-0.4c0.1-0.2,0.1-0.3,0.2-0.5l0.8-3.2h0.7L60.8,47.4z"/>
				<path class="st1" d="M65.1,45.6l-0.9,3.5h-0.4c-0.1,0-0.1,0-0.1-0.1l0-0.4c-0.2,0.2-0.4,0.3-0.6,0.4c-0.2,0.1-0.4,0.2-0.7,0.2
					c-0.2,0-0.4,0-0.5-0.1c-0.1-0.1-0.2-0.2-0.3-0.3c-0.1-0.1-0.1-0.3-0.1-0.4c0-0.2,0-0.3,0.1-0.5l0.6-2.2h0.6l-0.6,2.2
					c-0.1,0.3-0.1,0.5,0,0.6c0.1,0.1,0.2,0.2,0.5,0.2c0.2,0,0.4,0,0.5-0.1c0.2-0.1,0.4-0.2,0.5-0.4l0.7-2.6H65.1z"/>
				<path class="st1" d="M67.9,46.2c0,0.1-0.1,0.1-0.1,0.1c0,0-0.1,0-0.1,0c0,0-0.1-0.1-0.1-0.1c-0.1,0-0.1-0.1-0.2-0.1
					c-0.1,0-0.2,0-0.3,0c-0.1,0-0.2,0-0.3,0c-0.1,0-0.2,0.1-0.2,0.1s-0.1,0.1-0.2,0.2c0,0.1-0.1,0.1-0.1,0.2c0,0.1,0,0.2,0,0.2
					c0,0.1,0.1,0.1,0.2,0.2c0.1,0,0.2,0.1,0.3,0.1c0.1,0,0.2,0.1,0.3,0.1c0.1,0,0.2,0.1,0.3,0.1c0.1,0,0.2,0.1,0.2,0.2
					c0.1,0.1,0.1,0.2,0.1,0.3c0,0.1,0,0.2,0,0.4c0,0.2-0.1,0.3-0.2,0.4c-0.1,0.1-0.2,0.3-0.3,0.4c-0.1,0.1-0.3,0.2-0.5,0.2
					c-0.2,0.1-0.4,0.1-0.6,0.1c-0.2,0-0.5,0-0.6-0.1c-0.2-0.1-0.3-0.2-0.4-0.3l0.2-0.2c0,0,0.1-0.1,0.1-0.1c0,0,0.1,0,0.1,0
					c0,0,0.1,0,0.1,0c0,0,0.1,0.1,0.1,0.1s0.1,0.1,0.2,0.1c0.1,0,0.2,0,0.3,0c0.1,0,0.2,0,0.3,0c0.1,0,0.2-0.1,0.3-0.1
					c0.1-0.1,0.1-0.1,0.2-0.2c0-0.1,0.1-0.1,0.1-0.2c0-0.1,0-0.2,0-0.2c0-0.1-0.1-0.1-0.2-0.2c-0.1,0-0.2-0.1-0.3-0.1
					c-0.1,0-0.2-0.1-0.3-0.1c-0.1,0-0.2-0.1-0.3-0.1c-0.1,0-0.2-0.1-0.2-0.2c-0.1-0.1-0.1-0.2-0.1-0.3c0-0.1,0-0.2,0-0.4
					c0-0.1,0.1-0.3,0.2-0.4s0.2-0.2,0.3-0.3s0.3-0.2,0.4-0.2s0.4-0.1,0.5-0.1c0.2,0,0.4,0,0.6,0.1c0.2,0.1,0.3,0.2,0.4,0.3
					L67.9,46.2z"/>
				<path class="st1" d="M69.2,49.2c-0.3,0-0.5-0.1-0.6-0.2c-0.1-0.2-0.1-0.4-0.1-0.7l0.5-2.1h-0.4c0,0-0.1,0-0.1,0c0,0,0-0.1,0-0.1
					l0.1-0.2l0.6-0.1l0.4-1.1c0,0,0-0.1,0.1-0.1c0,0,0.1,0,0.1,0h0.3l-0.3,1.2h1l-0.1,0.4h-1l-0.5,2.1c0,0.1,0,0.3,0,0.3
					c0.1,0.1,0.1,0.1,0.2,0.1c0.1,0,0.1,0,0.2,0c0.1,0,0.1,0,0.1-0.1c0,0,0.1,0,0.1-0.1c0,0,0.1,0,0.1,0c0,0,0.1,0,0.1,0.1l0.1,0.3
					c-0.1,0.1-0.3,0.2-0.4,0.2C69.5,49.1,69.3,49.2,69.2,49.2z"/>
				<path class="st1" d="M75.2,44.2c0.3,0,0.6,0,0.8,0.1c0.2,0.1,0.4,0.2,0.5,0.3c0.1,0.1,0.2,0.3,0.2,0.5c0,0.2,0,0.4-0.1,0.6
					c-0.1,0.2-0.2,0.4-0.3,0.6c-0.1,0.2-0.3,0.4-0.5,0.5c-0.2,0.1-0.4,0.2-0.7,0.3c-0.2,0.1-0.5,0.1-0.8,0.1h-0.8l-0.5,1.8h-0.7
					l1.3-4.9H75.2z M74.6,46.7c0.2,0,0.4,0,0.5-0.1c0.2-0.1,0.3-0.1,0.4-0.2c0.1-0.1,0.2-0.2,0.3-0.3c0.1-0.1,0.1-0.3,0.2-0.4
					c0.1-0.3,0-0.6-0.1-0.7c-0.1-0.2-0.4-0.3-0.8-0.3h-0.8l-0.5,2H74.6z"/>
				<path class="st1" d="M78.7,45.6c0.3,0,0.5,0,0.7,0.1c0.2,0.1,0.3,0.2,0.4,0.4c0.1,0.2,0.2,0.3,0.2,0.6c0,0.2,0,0.5-0.1,0.7
					c-0.1,0.3-0.2,0.5-0.3,0.7c-0.1,0.2-0.3,0.4-0.5,0.6c-0.2,0.2-0.4,0.3-0.6,0.4s-0.5,0.1-0.7,0.1c-0.3,0-0.5,0-0.7-0.1
					c-0.2-0.1-0.3-0.2-0.4-0.4c-0.1-0.2-0.2-0.3-0.2-0.6c0-0.2,0-0.5,0.1-0.7c0.1-0.3,0.2-0.5,0.3-0.7c0.1-0.2,0.3-0.4,0.5-0.6
					c0.2-0.2,0.4-0.3,0.6-0.4C78.2,45.6,78.4,45.6,78.7,45.6z M77.9,48.7c0.3,0,0.6-0.1,0.9-0.3c0.2-0.2,0.4-0.6,0.5-1
					c0.1-0.4,0.1-0.7,0-1c-0.1-0.2-0.3-0.3-0.7-0.3c-0.2,0-0.3,0-0.5,0.1c-0.1,0.1-0.3,0.1-0.4,0.3c-0.1,0.1-0.2,0.3-0.3,0.4
					c-0.1,0.2-0.2,0.3-0.2,0.6c-0.1,0.4-0.1,0.7,0,1C77.3,48.6,77.5,48.7,77.9,48.7z"/>
				<path class="st1" d="M81.7,45.6l-0.9,3.5h-0.6l0.9-3.5H81.7z M82.1,44.5c0,0.1,0,0.1-0.1,0.2c0,0.1-0.1,0.1-0.1,0.1
					s-0.1,0.1-0.2,0.1s-0.1,0-0.2,0s-0.1,0-0.2,0s-0.1-0.1-0.1-0.1s0-0.1-0.1-0.1c0-0.1,0-0.1,0-0.2s0-0.1,0.1-0.2
					c0-0.1,0.1-0.1,0.1-0.1s0.1-0.1,0.2-0.1c0.1,0,0.1,0,0.2,0s0.1,0,0.2,0c0,0,0.1,0.1,0.1,0.1s0,0.1,0.1,0.1
					C82.2,44.4,82.2,44.5,82.1,44.5z"/>
				<path class="st1" d="M83.2,46.1c0.1-0.1,0.2-0.2,0.3-0.2c0.1-0.1,0.2-0.1,0.3-0.2s0.2-0.1,0.3-0.1s0.2,0,0.4,0
					c0.2,0,0.3,0,0.5,0.1c0.1,0.1,0.2,0.2,0.3,0.3c0.1,0.1,0.1,0.3,0.1,0.4s0,0.3-0.1,0.5l-0.6,2.2h-0.6l0.6-2.2
					c0.1-0.3,0.1-0.5,0-0.6c-0.1-0.1-0.2-0.2-0.5-0.2c-0.2,0-0.4,0-0.5,0.1c-0.2,0.1-0.4,0.2-0.5,0.4l-0.7,2.6h-0.6l0.9-3.5h0.4
					c0.1,0,0.1,0,0.1,0.1L83.2,46.1z"/>
				<path class="st1" d="M86.7,49.2c-0.3,0-0.5-0.1-0.6-0.2c-0.1-0.2-0.1-0.4-0.1-0.7l0.5-2.1h-0.4c0,0-0.1,0-0.1,0c0,0,0-0.1,0-0.1
					l0.1-0.2l0.6-0.1l0.4-1.1c0,0,0-0.1,0.1-0.1c0,0,0.1,0,0.1,0h0.3l-0.3,1.2h1l-0.1,0.4h-1l-0.5,2.1c0,0.1,0,0.3,0,0.3
					s0.1,0.1,0.2,0.1c0.1,0,0.1,0,0.2,0c0.1,0,0.1,0,0.1-0.1c0,0,0.1,0,0.1-0.1c0,0,0.1,0,0.1,0c0,0,0.1,0,0.1,0.1l0.1,0.3
					c-0.1,0.1-0.3,0.2-0.4,0.2C87,49.1,86.8,49.2,86.7,49.2z"/>
				<path class="st1" d="M87.8,49.9C87.8,49.9,87.8,49.9,87.8,49.9C87.8,49.9,87.8,49.9,87.8,49.9c0-0.1,0-0.1,0-0.1c0,0,0,0,0,0
					c0,0,0.1-0.1,0.1-0.1c0,0,0.1-0.1,0.1-0.1c0.1-0.1,0.1-0.1,0.1-0.2c0-0.1,0.1-0.1,0.1-0.2c0,0,0,0,0,0s0,0,0,0
					c-0.1,0-0.2,0-0.3-0.1c-0.1-0.1-0.1-0.2,0-0.3c0-0.1,0.1-0.2,0.2-0.3c0.1-0.1,0.2-0.1,0.3-0.1c0.1,0,0.1,0,0.2,0
					c0,0,0.1,0.1,0.1,0.1s0,0.1,0,0.2c0,0.1,0,0.1,0,0.2c0,0.1-0.1,0.2-0.1,0.3c-0.1,0.1-0.1,0.2-0.2,0.3c-0.1,0.1-0.2,0.2-0.3,0.3
					C88.2,49.9,88,50,87.8,49.9L87.8,49.9z"/>
				<path class="st1" d="M95.3,48.1C95.3,48.1,95.3,48.1,95.3,48.1l0.3,0.3c-0.3,0.2-0.6,0.4-0.9,0.5c-0.3,0.1-0.7,0.2-1.1,0.2
					c-0.4,0-0.7-0.1-0.9-0.2c-0.3-0.1-0.5-0.3-0.6-0.5c-0.1-0.2-0.2-0.5-0.3-0.8c0-0.3,0-0.6,0.1-1s0.2-0.7,0.4-1
					c0.2-0.3,0.4-0.6,0.7-0.8c0.3-0.2,0.6-0.4,0.9-0.5c0.3-0.1,0.7-0.2,1-0.2c0.3,0,0.6,0.1,0.9,0.2c0.2,0.1,0.4,0.3,0.6,0.5
					l-0.3,0.3c0,0,0,0-0.1,0.1c0,0-0.1,0-0.1,0c0,0-0.1,0-0.1-0.1c0,0-0.1-0.1-0.2-0.1c-0.1-0.1-0.2-0.1-0.3-0.1
					c-0.1,0-0.3-0.1-0.5-0.1c-0.3,0-0.5,0-0.7,0.1c-0.2,0.1-0.4,0.2-0.6,0.4c-0.2,0.2-0.4,0.4-0.5,0.6c-0.1,0.2-0.3,0.5-0.3,0.8
					c-0.1,0.3-0.1,0.6-0.1,0.8c0,0.2,0.1,0.4,0.2,0.6c0.1,0.2,0.3,0.3,0.4,0.4c0.2,0.1,0.4,0.1,0.6,0.1c0.1,0,0.3,0,0.4,0
					c0.1,0,0.2,0,0.3-0.1s0.2-0.1,0.3-0.1c0.1-0.1,0.2-0.1,0.3-0.2C95.2,48.1,95.2,48.1,95.3,48.1z"/>
				<path class="st1" d="M97.9,44l-1.3,5.1H96l1.3-5.1H97.9z"/>
				<path class="st1" d="M99.2,45.6l-0.9,3.5h-0.6l0.9-3.5H99.2z M99.6,44.5c0,0.1,0,0.1-0.1,0.2c0,0.1-0.1,0.1-0.1,0.1
					s-0.1,0.1-0.2,0.1s-0.1,0-0.2,0s-0.1,0-0.2,0s-0.1-0.1-0.1-0.1s0-0.1-0.1-0.1c0-0.1,0-0.1,0-0.2c0-0.1,0-0.1,0.1-0.2
					c0-0.1,0.1-0.1,0.1-0.1c0,0,0.1-0.1,0.2-0.1c0.1,0,0.1,0,0.2,0c0.1,0,0.1,0,0.2,0c0,0,0.1,0.1,0.1,0.1c0,0,0,0.1,0.1,0.1
					C99.6,44.4,99.6,44.5,99.6,44.5z"/>
				<path class="st1" d="M102.4,46.2C102.4,46.3,102.4,46.3,102.4,46.2c-0.1,0.1-0.1,0.1-0.2,0.1s-0.1,0-0.1,0c0,0-0.1-0.1-0.1-0.1
					c-0.1,0-0.1-0.1-0.2-0.1c-0.1,0-0.2,0-0.3,0c-0.2,0-0.3,0-0.5,0.1s-0.3,0.1-0.4,0.3c-0.1,0.1-0.2,0.3-0.3,0.4
					c-0.1,0.2-0.2,0.3-0.2,0.5c-0.1,0.2-0.1,0.4-0.1,0.6c0,0.2,0,0.3,0.1,0.4s0.1,0.2,0.3,0.3c0.1,0.1,0.2,0.1,0.4,0.1
					c0.1,0,0.3,0,0.4-0.1c0.1,0,0.2-0.1,0.3-0.1c0.1,0,0.1-0.1,0.2-0.1c0.1,0,0.1-0.1,0.1-0.1c0,0,0.1,0,0.1,0.1l0.1,0.2
					c-0.1,0.1-0.2,0.2-0.3,0.2c-0.1,0.1-0.2,0.1-0.4,0.2s-0.2,0.1-0.4,0.1c-0.1,0-0.3,0-0.4,0c-0.2,0-0.4,0-0.6-0.1
					c-0.2-0.1-0.3-0.2-0.4-0.3c-0.1-0.2-0.2-0.3-0.2-0.6c0-0.2,0-0.5,0.1-0.8c0.1-0.3,0.2-0.5,0.3-0.7c0.1-0.2,0.3-0.4,0.5-0.6
					c0.2-0.2,0.4-0.3,0.6-0.4c0.2-0.1,0.5-0.1,0.7-0.1c0.2,0,0.5,0,0.6,0.1c0.2,0.1,0.3,0.2,0.4,0.3L102.4,46.2z"/>
				<path class="st1" d="M104.5,44l-0.8,3h0.2c0,0,0.1,0,0.1,0c0,0,0.1,0,0.1-0.1l1.4-1.2c0,0,0.1-0.1,0.1-0.1c0,0,0.1,0,0.2,0h0.6
					l-1.6,1.4c-0.1,0.1-0.2,0.1-0.2,0.2c0,0,0.1,0.1,0.1,0.1c0,0,0,0.1,0.1,0.1l0.9,1.7H105c-0.1,0-0.1,0-0.1,0c0,0-0.1,0-0.1-0.1
					l-0.8-1.4c0,0,0-0.1-0.1-0.1c0,0-0.1,0-0.1,0h-0.2l-0.4,1.7h-0.6l1.3-5.1H104.5z"/>
				<path class="st1" d="M105.8,49.9C105.8,49.9,105.8,49.9,105.8,49.9C105.8,49.9,105.8,49.9,105.8,49.9c0-0.1,0-0.1,0-0.1
					c0,0,0,0,0,0c0,0,0.1-0.1,0.1-0.1c0,0,0.1-0.1,0.1-0.1c0.1-0.1,0.1-0.1,0.1-0.2c0-0.1,0.1-0.1,0.1-0.2c0,0,0,0,0,0s0,0,0,0
					c-0.1,0-0.2,0-0.3-0.1c-0.1-0.1-0.1-0.2,0-0.3c0-0.1,0.1-0.2,0.2-0.3c0.1-0.1,0.2-0.1,0.3-0.1c0.1,0,0.1,0,0.2,0
					c0,0,0.1,0.1,0.1,0.1s0,0.1,0,0.2c0,0.1,0,0.1,0,0.2c0,0.1-0.1,0.2-0.1,0.3c-0.1,0.1-0.1,0.2-0.2,0.3c-0.1,0.1-0.2,0.2-0.3,0.3
					C106.1,49.9,106,50,105.8,49.9L105.8,49.9z"/>
				<path class="st1" d="M110.1,46.1c0.2-0.2,0.5-0.3,0.7-0.4c0.2-0.1,0.5-0.1,0.8-0.1c0.2,0,0.4,0,0.5,0.1c0.1,0.1,0.2,0.2,0.3,0.3
					c0.1,0.1,0.1,0.3,0.1,0.4s0,0.3-0.1,0.5l-0.6,2.2h-0.3c-0.1,0-0.1,0-0.1,0c0,0,0-0.1,0-0.1l0-0.3c-0.1,0.1-0.2,0.2-0.3,0.2
					c-0.1,0.1-0.2,0.1-0.3,0.2s-0.2,0.1-0.3,0.1s-0.2,0-0.4,0c-0.1,0-0.3,0-0.4-0.1c-0.1,0-0.2-0.1-0.3-0.2
					c-0.1-0.1-0.1-0.2-0.1-0.3c0-0.1,0-0.3,0-0.4c0-0.1,0.1-0.3,0.2-0.4s0.3-0.2,0.5-0.3c0.2-0.1,0.4-0.2,0.7-0.2
					c0.3-0.1,0.6-0.1,1-0.1l0.1-0.3c0.1-0.3,0.1-0.5,0-0.6c-0.1-0.1-0.2-0.2-0.5-0.2c-0.2,0-0.3,0-0.4,0.1c-0.1,0-0.2,0.1-0.3,0.1
					c-0.1,0-0.2,0.1-0.2,0.1c-0.1,0-0.1,0.1-0.2,0.1c0,0-0.1,0-0.1,0c0,0,0,0-0.1-0.1L110.1,46.1z M111.7,47.5c-0.3,0-0.5,0-0.7,0.1
					c-0.2,0-0.4,0.1-0.5,0.1c-0.1,0.1-0.2,0.1-0.3,0.2c-0.1,0.1-0.1,0.2-0.2,0.3c0,0.1,0,0.2,0,0.2c0,0.1,0,0.1,0.1,0.2
					c0,0,0.1,0.1,0.2,0.1c0.1,0,0.1,0,0.2,0c0.1,0,0.2,0,0.3,0c0.1,0,0.2-0.1,0.3-0.1s0.2-0.1,0.3-0.1c0.1-0.1,0.2-0.1,0.3-0.2
					L111.7,47.5z"/>
				<path class="st1" d="M114.1,46.1c0.1-0.1,0.2-0.2,0.3-0.2c0.1-0.1,0.2-0.1,0.3-0.2s0.2-0.1,0.3-0.1s0.2,0,0.4,0
					c0.2,0,0.3,0,0.5,0.1c0.1,0.1,0.2,0.2,0.3,0.3c0.1,0.1,0.1,0.3,0.1,0.4s0,0.3-0.1,0.5l-0.6,2.2h-0.6l0.6-2.2
					c0.1-0.3,0.1-0.5,0-0.6c-0.1-0.1-0.2-0.2-0.5-0.2c-0.2,0-0.4,0-0.5,0.1c-0.2,0.1-0.4,0.2-0.5,0.4l-0.7,2.6h-0.6l0.9-3.5h0.4
					c0.1,0,0.1,0,0.1,0.1L114.1,46.1z"/>
				<path class="st1" d="M120.8,44l-1.3,5.1h-0.4c-0.1,0-0.1,0-0.1-0.1l0.1-0.4c-0.2,0.2-0.4,0.3-0.6,0.4c-0.2,0.1-0.5,0.2-0.7,0.2
					c-0.2,0-0.4,0-0.5-0.1s-0.3-0.2-0.3-0.3c-0.1-0.2-0.1-0.3-0.1-0.6c0-0.2,0-0.5,0.1-0.8c0.1-0.3,0.2-0.5,0.3-0.7
					c0.1-0.2,0.3-0.4,0.4-0.6c0.2-0.2,0.4-0.3,0.6-0.4s0.4-0.1,0.7-0.1c0.2,0,0.4,0,0.5,0.1c0.1,0.1,0.2,0.2,0.3,0.3l0.5-1.9H120.8z
					 M119.6,46.5c-0.1-0.2-0.2-0.3-0.3-0.3S119,46,118.9,46c-0.3,0-0.6,0.1-0.8,0.3c-0.2,0.2-0.4,0.6-0.5,1
					c-0.1,0.2-0.1,0.4-0.1,0.6s0,0.3,0.1,0.4c0,0.1,0.1,0.2,0.2,0.2c0.1,0,0.2,0.1,0.4,0.1c0.2,0,0.4,0,0.6-0.1s0.3-0.2,0.5-0.4
					L119.6,46.5z"/>
				<path class="st1" d="M126.1,48.1C126.2,48.1,126.2,48.1,126.1,48.1l0.3,0.3c-0.3,0.2-0.6,0.4-0.9,0.5c-0.3,0.1-0.7,0.2-1.1,0.2
					c-0.4,0-0.7-0.1-0.9-0.2c-0.3-0.1-0.5-0.3-0.6-0.5c-0.1-0.2-0.2-0.5-0.3-0.8c0-0.3,0-0.6,0.1-1s0.2-0.7,0.4-1
					c0.2-0.3,0.4-0.6,0.7-0.8c0.3-0.2,0.6-0.4,0.9-0.5c0.3-0.1,0.7-0.2,1-0.2c0.3,0,0.6,0.1,0.9,0.2c0.2,0.1,0.4,0.3,0.6,0.5
					l-0.3,0.3c0,0,0,0-0.1,0.1c0,0-0.1,0-0.1,0c0,0-0.1,0-0.1-0.1c0,0-0.1-0.1-0.2-0.1c-0.1-0.1-0.2-0.1-0.3-0.1
					c-0.1,0-0.3-0.1-0.5-0.1c-0.3,0-0.5,0-0.7,0.1c-0.2,0.1-0.4,0.2-0.6,0.4c-0.2,0.2-0.4,0.4-0.5,0.6c-0.1,0.2-0.3,0.5-0.3,0.8
					c-0.1,0.3-0.1,0.6-0.1,0.8c0,0.2,0.1,0.4,0.2,0.6c0.1,0.2,0.3,0.3,0.4,0.4c0.2,0.1,0.4,0.1,0.6,0.1c0.1,0,0.3,0,0.4,0
					c0.1,0,0.2,0,0.3-0.1s0.2-0.1,0.3-0.1c0.1-0.1,0.2-0.1,0.3-0.2C126,48.1,126.1,48.1,126.1,48.1z"/>
				<path class="st1" d="M129.2,45.6c0.3,0,0.5,0,0.7,0.1c0.2,0.1,0.3,0.2,0.4,0.4c0.1,0.2,0.2,0.3,0.2,0.6c0,0.2,0,0.5-0.1,0.7
					c-0.1,0.3-0.2,0.5-0.3,0.7c-0.1,0.2-0.3,0.4-0.5,0.6c-0.2,0.2-0.4,0.3-0.6,0.4s-0.5,0.1-0.7,0.1c-0.3,0-0.5,0-0.7-0.1
					c-0.2-0.1-0.3-0.2-0.4-0.4c-0.1-0.2-0.2-0.3-0.2-0.6c0-0.2,0-0.5,0.1-0.7c0.1-0.3,0.2-0.5,0.3-0.7s0.3-0.4,0.5-0.6
					c0.2-0.2,0.4-0.3,0.6-0.4C128.7,45.6,128.9,45.6,129.2,45.6z M128.4,48.7c0.3,0,0.6-0.1,0.9-0.3c0.2-0.2,0.4-0.6,0.5-1
					c0.1-0.4,0.1-0.7,0-1c-0.1-0.2-0.3-0.3-0.7-0.3c-0.2,0-0.3,0-0.5,0.1c-0.1,0.1-0.3,0.1-0.4,0.3c-0.1,0.1-0.2,0.3-0.3,0.4
					c-0.1,0.2-0.2,0.3-0.2,0.6c-0.1,0.4-0.1,0.7,0,1C127.8,48.6,128,48.7,128.4,48.7z"/>
				<path class="st1" d="M130.7,49.1l0.9-3.5h0.4c0.1,0,0.1,0,0.1,0.1l0,0.4c0.2-0.2,0.3-0.3,0.5-0.4c0.2-0.1,0.4-0.2,0.6-0.2
					c0.2,0,0.4,0.1,0.5,0.2c0.1,0.1,0.2,0.3,0.2,0.5c0.1-0.1,0.2-0.2,0.3-0.3c0.1-0.1,0.2-0.2,0.3-0.2c0.1-0.1,0.2-0.1,0.3-0.1
					s0.2,0,0.3,0c0.2,0,0.3,0,0.5,0.1c0.1,0.1,0.2,0.1,0.3,0.3c0.1,0.1,0.1,0.3,0.1,0.4s0,0.4-0.1,0.6l-0.6,2.2h-0.6l0.6-2.2
					c0.1-0.3,0.1-0.5,0-0.6s-0.2-0.2-0.5-0.2c-0.1,0-0.2,0-0.3,0.1c-0.1,0-0.2,0.1-0.3,0.2c-0.1,0.1-0.2,0.2-0.2,0.3
					c-0.1,0.1-0.1,0.2-0.2,0.4l-0.6,2.2h-0.6l0.6-2.2c0.1-0.3,0.1-0.5,0-0.6s-0.2-0.2-0.4-0.2c-0.2,0-0.3,0-0.5,0.1
					c-0.1,0.1-0.3,0.2-0.4,0.3l-0.7,2.6H130.7z"/>
				<path class="st1" d="M136.3,49.1l0.9-3.5h0.4c0.1,0,0.1,0,0.1,0.1l0,0.4c0.2-0.2,0.3-0.3,0.5-0.4c0.2-0.1,0.4-0.2,0.6-0.2
					c0.2,0,0.4,0.1,0.5,0.2c0.1,0.1,0.2,0.3,0.2,0.5c0.1-0.1,0.2-0.2,0.3-0.3c0.1-0.1,0.2-0.2,0.3-0.2c0.1-0.1,0.2-0.1,0.3-0.1
					s0.2,0,0.3,0c0.2,0,0.3,0,0.5,0.1c0.1,0.1,0.2,0.1,0.3,0.3c0.1,0.1,0.1,0.3,0.1,0.4s0,0.4-0.1,0.6l-0.6,2.2h-0.6l0.6-2.2
					c0.1-0.3,0.1-0.5,0-0.6s-0.2-0.2-0.5-0.2c-0.1,0-0.2,0-0.3,0.1c-0.1,0-0.2,0.1-0.3,0.2c-0.1,0.1-0.2,0.2-0.2,0.3
					c-0.1,0.1-0.1,0.2-0.2,0.4l-0.6,2.2h-0.6l0.6-2.2c0.1-0.3,0.1-0.5,0-0.6s-0.2-0.2-0.4-0.2c-0.2,0-0.3,0-0.5,0.1
					c-0.1,0.1-0.3,0.2-0.4,0.3l-0.7,2.6H136.3z"/>
				<path class="st1" d="M145.8,45.6l-0.9,3.5h-0.4c-0.1,0-0.1,0-0.1-0.1l0-0.4c-0.2,0.2-0.4,0.3-0.6,0.4c-0.2,0.1-0.4,0.2-0.7,0.2
					c-0.2,0-0.4,0-0.5-0.1c-0.1-0.1-0.2-0.2-0.3-0.3c-0.1-0.1-0.1-0.3-0.1-0.4c0-0.2,0-0.3,0.1-0.5l0.6-2.2h0.6l-0.6,2.2
					c-0.1,0.3-0.1,0.5,0,0.6c0.1,0.1,0.2,0.2,0.5,0.2c0.2,0,0.4,0,0.5-0.1c0.2-0.1,0.4-0.2,0.5-0.4l0.7-2.6H145.8z"/>
				<path class="st1" d="M147.2,46.1c0.1-0.1,0.2-0.2,0.3-0.2c0.1-0.1,0.2-0.1,0.3-0.2s0.2-0.1,0.3-0.1s0.2,0,0.4,0
					c0.2,0,0.3,0,0.5,0.1c0.1,0.1,0.2,0.2,0.3,0.3c0.1,0.1,0.1,0.3,0.1,0.4s0,0.3-0.1,0.5l-0.6,2.2h-0.6l0.6-2.2
					c0.1-0.3,0.1-0.5,0-0.6c-0.1-0.1-0.2-0.2-0.5-0.2c-0.2,0-0.4,0-0.5,0.1c-0.2,0.1-0.4,0.2-0.5,0.4l-0.7,2.6h-0.6l0.9-3.5h0.4
					c0.1,0,0.1,0,0.1,0.1L147.2,46.1z"/>
				<path class="st1" d="M151.2,45.6l-0.9,3.5h-0.6l0.9-3.5H151.2z M151.6,44.5c0,0.1,0,0.1-0.1,0.2c0,0.1-0.1,0.1-0.1,0.1
					s-0.1,0.1-0.2,0.1s-0.1,0-0.2,0s-0.1,0-0.2,0s-0.1-0.1-0.1-0.1s0-0.1-0.1-0.1c0-0.1,0-0.1,0-0.2c0-0.1,0-0.1,0.1-0.2
					c0-0.1,0.1-0.1,0.1-0.1c0,0,0.1-0.1,0.2-0.1c0.1,0,0.1,0,0.2,0c0.1,0,0.1,0,0.2,0c0,0,0.1,0.1,0.1,0.1c0,0,0,0.1,0.1,0.1
					C151.6,44.4,151.6,44.5,151.6,44.5z"/>
				<path class="st1" d="M154.5,46.2C154.4,46.3,154.4,46.3,154.5,46.2c-0.1,0.1-0.1,0.1-0.2,0.1s-0.1,0-0.1,0c0,0-0.1-0.1-0.1-0.1
					c-0.1,0-0.1-0.1-0.2-0.1c-0.1,0-0.2,0-0.3,0c-0.2,0-0.3,0-0.5,0.1s-0.3,0.1-0.4,0.3c-0.1,0.1-0.2,0.3-0.3,0.4
					c-0.1,0.2-0.2,0.3-0.2,0.5c-0.1,0.2-0.1,0.4-0.1,0.6c0,0.2,0,0.3,0.1,0.4s0.1,0.2,0.3,0.3c0.1,0.1,0.2,0.1,0.4,0.1
					c0.1,0,0.3,0,0.4-0.1c0.1,0,0.2-0.1,0.3-0.1c0.1,0,0.1-0.1,0.2-0.1c0.1,0,0.1-0.1,0.1-0.1c0,0,0.1,0,0.1,0.1l0.1,0.2
					c-0.1,0.1-0.2,0.2-0.3,0.2c-0.1,0.1-0.2,0.1-0.4,0.2s-0.2,0.1-0.4,0.1c-0.1,0-0.3,0-0.4,0c-0.2,0-0.4,0-0.6-0.1
					c-0.2-0.1-0.3-0.2-0.4-0.3c-0.1-0.2-0.2-0.3-0.2-0.6c0-0.2,0-0.5,0.1-0.8c0.1-0.3,0.2-0.5,0.3-0.7c0.1-0.2,0.3-0.4,0.5-0.6
					c0.2-0.2,0.4-0.3,0.6-0.4c0.2-0.1,0.5-0.1,0.7-0.1c0.2,0,0.5,0,0.6,0.1c0.2,0.1,0.3,0.2,0.4,0.3L154.5,46.2z"/>
				<path class="st1" d="M155.3,46.1c0.2-0.2,0.5-0.3,0.7-0.4c0.2-0.1,0.5-0.1,0.8-0.1c0.2,0,0.4,0,0.5,0.1c0.1,0.1,0.2,0.2,0.3,0.3
					c0.1,0.1,0.1,0.3,0.1,0.4s0,0.3-0.1,0.5l-0.6,2.2h-0.3c-0.1,0-0.1,0-0.1,0c0,0,0-0.1,0-0.1l0-0.3c-0.1,0.1-0.2,0.2-0.3,0.2
					c-0.1,0.1-0.2,0.1-0.3,0.2s-0.2,0.1-0.3,0.1s-0.2,0-0.4,0c-0.1,0-0.3,0-0.4-0.1c-0.1,0-0.2-0.1-0.3-0.2
					c-0.1-0.1-0.1-0.2-0.1-0.3c0-0.1,0-0.3,0-0.4c0-0.1,0.1-0.3,0.2-0.4s0.3-0.2,0.5-0.3c0.2-0.1,0.4-0.2,0.7-0.2
					c0.3-0.1,0.6-0.1,1-0.1l0.1-0.3c0.1-0.3,0.1-0.5,0-0.6c-0.1-0.1-0.2-0.2-0.5-0.2c-0.2,0-0.3,0-0.4,0.1c-0.1,0-0.2,0.1-0.3,0.1
					c-0.1,0-0.2,0.1-0.2,0.1c-0.1,0-0.1,0.1-0.2,0.1c0,0-0.1,0-0.1,0c0,0,0,0-0.1-0.1L155.3,46.1z M156.9,47.5c-0.3,0-0.5,0-0.7,0.1
					c-0.2,0-0.4,0.1-0.5,0.1c-0.1,0.1-0.2,0.1-0.3,0.2c-0.1,0.1-0.1,0.2-0.2,0.3c0,0.1,0,0.2,0,0.2c0,0.1,0,0.1,0.1,0.2
					c0,0,0.1,0.1,0.2,0.1c0.1,0,0.1,0,0.2,0c0.1,0,0.2,0,0.3,0c0.1,0,0.2-0.1,0.3-0.1s0.2-0.1,0.3-0.1c0.1-0.1,0.2-0.1,0.3-0.2
					L156.9,47.5z"/>
				<path class="st1" d="M159.1,49.2c-0.3,0-0.5-0.1-0.6-0.2c-0.1-0.2-0.1-0.4-0.1-0.7l0.5-2.1h-0.4c0,0-0.1,0-0.1,0
					c0,0,0-0.1,0-0.1l0.1-0.2l0.6-0.1l0.4-1.1c0,0,0-0.1,0.1-0.1c0,0,0.1,0,0.1,0h0.3l-0.3,1.2h1l-0.1,0.4h-1l-0.5,2.1
					c0,0.1,0,0.3,0,0.3s0.1,0.1,0.2,0.1c0.1,0,0.1,0,0.2,0c0.1,0,0.1,0,0.1-0.1c0,0,0.1,0,0.1-0.1c0,0,0.1,0,0.1,0
					c0,0,0.1,0,0.1,0.1l0.1,0.3c-0.1,0.1-0.3,0.2-0.4,0.2C159.4,49.1,159.2,49.2,159.1,49.2z"/>
				<path class="st1" d="M163.4,48.6c-0.1,0.1-0.2,0.2-0.3,0.2c-0.1,0.1-0.3,0.1-0.4,0.2c-0.1,0-0.3,0.1-0.4,0.1s-0.3,0-0.4,0
					c-0.2,0-0.5,0-0.6-0.1c-0.2-0.1-0.3-0.2-0.4-0.4c-0.1-0.2-0.2-0.4-0.2-0.6c0-0.2,0-0.5,0.1-0.8c0.1-0.2,0.2-0.5,0.3-0.7
					s0.3-0.4,0.5-0.5c0.2-0.2,0.4-0.3,0.6-0.4c0.2-0.1,0.5-0.1,0.7-0.1c0.2,0,0.4,0,0.6,0.1c0.2,0.1,0.3,0.2,0.4,0.3
					c0.1,0.1,0.2,0.3,0.2,0.5c0,0.2,0,0.4-0.1,0.7c0,0.1-0.1,0.2-0.1,0.2c0,0-0.1,0-0.1,0h-2.3c-0.1,0.2-0.1,0.4-0.1,0.6
					s0.1,0.3,0.1,0.4c0.1,0.1,0.2,0.2,0.3,0.2c0.1,0.1,0.3,0.1,0.4,0.1c0.2,0,0.3,0,0.4-0.1c0.1,0,0.2-0.1,0.3-0.1
					c0.1,0,0.2-0.1,0.2-0.1c0.1,0,0.1-0.1,0.2-0.1c0.1,0,0.1,0,0.1,0.1L163.4,48.6z M163.3,47c0-0.1,0-0.3,0-0.4
					c0-0.1,0-0.2-0.1-0.3c-0.1-0.1-0.1-0.2-0.2-0.2c-0.1,0-0.2-0.1-0.4-0.1c-0.3,0-0.5,0.1-0.8,0.3c-0.2,0.2-0.4,0.4-0.5,0.7H163.3z
					"/>
			</g>
			<g class="st2">
				
					<radialGradient id="SVGID_1_" cx="-13612.626" cy="-49661.5586" r="58.12" fx="-13657.7051" fy="-49661.5586" gradientTransform="matrix(0.41 0 0 -0.1 5699.3301 -4812.79)" gradientUnits="userSpaceOnUse">
					<stop  offset="0" style="stop-color:#262626"/>
					<stop  offset="0.29" style="stop-color:#848484;stop-opacity:0.57"/>
					<stop  offset="0.69" style="stop-color:#DFDFDF;stop-opacity:0.15"/>
					<stop  offset="1" style="stop-color:#FFFFFF;stop-opacity:0"/>
				</radialGradient>
				<ellipse class="st3" cx="62.1" cy="49.3" rx="24.1" ry="5.7"/>
				
					<radialGradient id="SVGID_2_" cx="-11091.0439" cy="-49661.5586" r="58.12" fx="-11136.1201" fy="-49661.5586" gradientTransform="matrix(-0.41 0 0 -0.1 -4568.2197 -4812.79)" gradientUnits="userSpaceOnUse">
					<stop  offset="0" style="stop-color:#262626"/>
					<stop  offset="0.29" style="stop-color:#848484;stop-opacity:0.57"/>
					<stop  offset="0.69" style="stop-color:#DFDFDF;stop-opacity:0.15"/>
					<stop  offset="1" style="stop-color:#FFFFFF;stop-opacity:0"/>
				</radialGradient>
				<ellipse class="st4" cx="24.1" cy="49.3" rx="24.1" ry="5.7"/>
			</g>
			<path class="st1" d="M72.7,18.8C62.8,13.4,50.4,17.1,45,27L34.3,46.3l0.4,0.4c5.4,3.1,10,3.5,15.3,1.9c5.1-1.5,9.5-5.1,12-9.8
				l10.8-20L72.7,18.8z"/>
			<path class="st5" d="M39,48.2c2.4-4.7,2.8-10.1,1.1-15.1c-1.6-5.2-5.2-9.5-10-12l-20-10.5L10,10.9c-5.2,9.9-1.4,22.1,8.5,27.3
				l20.2,10.6L39,48.2z"/>
			<path class="st6" d="M38.9,48.6c10.2-5.2,14.3-17.7,9.2-28L37.7,0l-0.3,0.2c-10.2,5.2-14.2,17.6-9.1,27.8l10.5,20.7L38.9,48.6z"
				/>
			<circle class="st7" cx="61.7" cy="23.6" r="1.5"/>
		</g>
	</g>
</g>
</svg>
