<?xml version="1.0" encoding="UTF-8" standalone="no"?>
<svg
   xmlns:dc="http://purl.org/dc/elements/1.1/"
   xmlns:cc="http://creativecommons.org/ns#"
   xmlns:rdf="http://www.w3.org/1999/02/22-rdf-syntax-ns#"
   xmlns:svg="http://www.w3.org/2000/svg"
   xmlns="http://www.w3.org/2000/svg"
   viewBox="0 0 853.33331 353.36133"
   height="353.36133"
   width="853.33331"
   xml:space="preserve"
   id="svg2"
   version="1.1"><metadata
     id="metadata8"><rdf:RDF><cc:Work
         rdf:about=""><dc:format>image/svg+xml</dc:format><dc:type
           rdf:resource="http://purl.org/dc/dcmitype/StillImage" /></cc:Work></rdf:RDF></metadata><defs
     id="defs6"><clipPath
       id="clipPath22"
       clipPathUnits="userSpaceOnUse"><path
         id="path20"
         d="M 0,265.021 H 640 V 0 H 0 Z" /></clipPath><clipPath
       id="clipPath34"
       clipPathUnits="userSpaceOnUse"><path
         id="path32"
         d="M 32.0547,79.2471 H 318.239 V 41.4385 H 32.0547 Z" /></clipPath><clipPath
       id="clipPath38"
       clipPathUnits="userSpaceOnUse"><path
         id="path36"
         d="M 158.477,79.2471 H 318.239 V 41.4385 H 158.477 Z" /></clipPath><clipPath
       id="clipPath42"
       clipPathUnits="userSpaceOnUse"><path
         id="path40"
         d="m 318.239,60.343 c 0,-10.441 -35.757,-18.905 -79.878,-18.905 -44.128,0 -79.884,8.464 -79.884,18.905 0,10.438 35.756,18.904 79.884,18.904 44.121,0 79.878,-8.466 79.878,-18.904" /></clipPath><clipPath
       id="clipPath46"
       clipPathUnits="userSpaceOnUse"><path
         id="path44"
         d="M -32767,32767 H 32767 V -32767 H -32767 Z" /></clipPath><radialGradient
       id="radialGradient54"
       spreadMethod="pad"
       gradientTransform="matrix(79.92131,0,0,-18.894699,238.35791,60.342773)"
       gradientUnits="userSpaceOnUse"
       r="1"
       cy="0"
       cx="0"
       fy="-0.0184479"
       fx="-0.77560401"><stop
         id="stop48"
         offset="0"
         style="stop-opacity:1;stop-color:#ffffff" /><stop
         id="stop50"
         offset="0.61143381"
         style="stop-opacity:0;stop-color:#ffffff" /><stop
         id="stop52"
         offset="1"
         style="stop-opacity:0;stop-color:#ffffff" /></radialGradient><mask
       id="mask56"
       height="1"
       width="1"
       y="0"
       x="0"
       maskUnits="userSpaceOnUse"><g
         id="g66"><g
           id="g64"
           clip-path="url(#clipPath46)"><g
             id="g62"><g
               id="g60"><path
                 id="path58"
                 style="fill:url(#radialGradient54);stroke:none"
                 d="M -32767,32767 H 32767 V -32767 H -32767 Z" /></g></g></g></g></mask><radialGradient
       id="radialGradient74"
       spreadMethod="pad"
       gradientTransform="matrix(79.92131,0,0,-18.894699,238.35791,60.342773)"
       gradientUnits="userSpaceOnUse"
       r="1"
       cy="0"
       cx="0"
       fy="-0.0184479"
       fx="-0.77560401"><stop
         id="stop68"
         offset="0"
         style="stop-opacity:1;stop-color:#4a4a49" /><stop
         id="stop70"
         offset="0.61143381"
         style="stop-opacity:1;stop-color:#ffffff" /><stop
         id="stop72"
         offset="1"
         style="stop-opacity:1;stop-color:#ffffff" /></radialGradient><clipPath
       id="clipPath78"
       clipPathUnits="userSpaceOnUse"><path
         id="path76"
         d="M 32.0547,79.2471 H 191.819 V 41.4385 H 32.0547 Z" /></clipPath><clipPath
       id="clipPath82"
       clipPathUnits="userSpaceOnUse"><path
         id="path80"
         d="m 32.055,60.343 c 0,-10.441 35.765,-18.905 79.884,-18.905 44.122,0 79.88,8.464 79.88,18.905 0,10.438 -35.758,18.904 -79.88,18.904 -44.119,0 -79.884,-8.466 -79.884,-18.904" /></clipPath><clipPath
       id="clipPath86"
       clipPathUnits="userSpaceOnUse"><path
         id="path84"
         d="M -32767,32767 H 32767 V -32767 H -32767 Z" /></clipPath><radialGradient
       id="radialGradient94"
       spreadMethod="pad"
       gradientTransform="matrix(-79.921906,0,0,-18.894836,111.93701,60.342773)"
       gradientUnits="userSpaceOnUse"
       r="1"
       cy="0"
       cx="0"
       fy="-0.0184479"
       fx="-0.77560401"><stop
         id="stop88"
         offset="0"
         style="stop-opacity:1;stop-color:#ffffff" /><stop
         id="stop90"
         offset="0.61143381"
         style="stop-opacity:0;stop-color:#ffffff" /><stop
         id="stop92"
         offset="1"
         style="stop-opacity:0;stop-color:#ffffff" /></radialGradient><mask
       id="mask96"
       height="1"
       width="1"
       y="0"
       x="0"
       maskUnits="userSpaceOnUse"><g
         id="g106"><g
           id="g104"
           clip-path="url(#clipPath86)"><g
             id="g102"><g
               id="g100"><path
                 id="path98"
                 style="fill:url(#radialGradient94);stroke:none"
                 d="M -32767,32767 H 32767 V -32767 H -32767 Z" /></g></g></g></g></mask><radialGradient
       id="radialGradient114"
       spreadMethod="pad"
       gradientTransform="matrix(-79.921906,0,0,-18.894836,111.93701,60.342773)"
       gradientUnits="userSpaceOnUse"
       r="1"
       cy="0"
       cx="0"
       fy="-0.0184479"
       fx="-0.77560401"><stop
         id="stop108"
         offset="0"
         style="stop-opacity:1;stop-color:#4a4a49" /><stop
         id="stop110"
         offset="0.61143381"
         style="stop-opacity:1;stop-color:#ffffff" /><stop
         id="stop112"
         offset="1"
         style="stop-opacity:1;stop-color:#ffffff" /></radialGradient></defs><g
     transform="matrix(1.3333333,0,0,-1.3333333,0,353.36133)"
     id="g10"><text
       id="text14"
       style="font-variant:normal;font-weight:bold;font-stretch:normal;font-size:71.70079803px;font-family:Lato;-inkscape-font-specification:Lato-Bold;writing-mode:lr-tb;fill:#000000;fill-opacity:1;fill-rule:nonzero;stroke:none"
       transform="matrix(1,0,0,-1,270.2334,92.9082)"><tspan
         id="tspan12"
         y="0"
         x="0 35.348495 76.074547 115.58169 162.25891 181.68983 210.94376">TokBird</tspan></text>
<g
       id="g16"><g
         clip-path="url(#clipPath22)"
         id="g18"><text
           id="text26"
           style="font-variant:normal;font-weight:normal;font-stretch:normal;font-size:23.53470612px;font-family:Lato;-inkscape-font-specification:Lato-Regular;writing-mode:lr-tb;fill:#000000;fill-opacity:1;fill-rule:nonzero;stroke:none"
           transform="matrix(0.9693726,0,-0.24559473,-0.9693726,224.6307,61.009)"><tspan
             id="tspan24"
             y="0"
             x="0 10.449409 23.534706 33.748772 42.527214 47.069412 61.0961 74.181396 80.206284 93.29158 102.07002 107.05938 111.60158 127.72285 133.74774 139.77263 150.76334 163.09552 168.08488 172.62708 184.55917 197.64447 210.80037 215.34258 231.46384 244.54913 263.87112 283.19312 296.27841 309.36371 315.38861 326.3793 338.3114 347.08984">Just Point, Click, and Communicate</tspan></text>
<g
           id="g28"><g
             id="g30" /><g
             id="g162"><g
               style="opacity:0.83999598"
               id="g160"
               clip-path="url(#clipPath34)"><g
                 id="g136"><g
                   id="g116" /><g
                   id="g134"><g
                     style="opacity:0.66999799"
                     id="g132"
                     clip-path="url(#clipPath38)"><g
                       id="g130"><g
                         id="g128"
                         clip-path="url(#clipPath42)"><g
                           id="g126"><g
                             id="g118" /><g
                             id="g124"
                             mask="url(#mask56)"><g
                               id="g122"><path
                                 id="path120"
                                 style="fill:url(#radialGradient74);stroke:none"
                                 d="m 318.239,60.343 c 0,-10.441 -35.757,-18.905 -79.878,-18.905 -44.128,0 -79.884,8.464 -79.884,18.905 0,10.438 35.756,18.904 79.884,18.904 44.121,0 79.878,-8.466 79.878,-18.904" /></g></g></g></g></g></g></g></g><g
                 id="g158"><g
                   id="g138" /><g
                   id="g156"><g
                     style="opacity:0.66999799"
                     id="g154"
                     clip-path="url(#clipPath78)"><g
                       id="g152"><g
                         id="g150"
                         clip-path="url(#clipPath82)"><g
                           id="g148"><g
                             id="g140" /><g
                             id="g146"
                             mask="url(#mask96)"><g
                               id="g144"><path
                                 id="path142"
                                 style="fill:url(#radialGradient114);stroke:none"
                                 d="m 32.055,60.343 c 0,-10.441 35.765,-18.905 79.884,-18.905 44.122,0 79.88,8.464 79.88,18.905 0,10.438 -35.758,18.904 -79.88,18.904 -44.119,0 -79.884,-8.466 -79.884,-18.904" /></g></g></g></g></g></g></g></g></g></g></g><g
           transform="translate(273.4849,161.9287)"
           id="g164"><path
             id="path166"
             style="fill:#2c2420;fill-opacity:1;fill-rule:nonzero;stroke:none"
             d="m 0,0 c -15.293,8.256 -33.746,10.678 -51.716,5.308 -17.971,-5.366 -32.066,-17.503 -40.33,-32.801 l -35.636,-64.123 1.394,-1.252 c 18.07,-10.354 33.038,-11.739 50.826,-6.432 17.793,5.323 31.754,17.346 39.931,32.489 L 0.423,-0.233 Z" /></g><g
           transform="translate(161.6909,64.2627)"
           id="g168"><path
             id="path170"
             style="fill:#ee463d;fill-opacity:1;fill-rule:nonzero;stroke:none"
             d="m 0,0 c 8.055,15.4 9.375,32.188 3.772,50.08 -5.599,17.901 -17.927,31.837 -33.335,39.896 l -66.448,34.754 -0.532,-1.022 c -7.986,-15.255 -10.145,-33.548 -4.588,-51.269 5.54,-17.725 17.748,-31.521 32.994,-39.499 L -1.08,-2.136 Z" /></g><g
           transform="translate(161.3184,62.9746)"
           id="g172"><path
             id="path174"
             style="fill:#4e93af;fill-opacity:1;fill-rule:nonzero;stroke:none"
             d="m 0,0 c 15.795,8.023 28.537,22.078 34.467,40.241 5.94,18.175 3.951,37.036 -4.071,52.839 l -34.605,68.157 -1.039,-0.534 c -15.655,-7.94 -28.271,-21.849 -34.139,-39.845 -5.884,-17.989 -3.911,-36.663 4.024,-52.306 l 34.916,-68.78 z" /></g><g
           transform="translate(232.1919,145.8018)"
           id="g176"><path
             id="path178"
             style="fill:#ffffff;fill-opacity:1;fill-rule:nonzero;stroke:none"
             d="m 0,0 c 0,-2.698 2.186,-4.886 4.888,-4.886 2.697,0 4.884,2.188 4.884,4.886 0,2.702 -2.187,4.886 -4.884,4.886 C 2.186,4.886 0,2.702 0,0" /></g></g></g></g></svg>